<svg width="87" height="191" viewBox="0 0 87 191" fill="none" xmlns="http://www.w3.org/2000/svg">
<path d="M64.8341 191H58.4926C57.7522 190.999 57.0424 190.665 56.5188 190.07C55.9953 189.476 55.7008 188.67 55.7 187.83V127.836C55.7008 126.995 55.9953 126.189 56.5188 125.595C57.0424 125.001 57.7522 124.667 58.4926 124.666H64.8341C65.5745 124.667 66.2843 125.001 66.8079 125.595C67.3314 126.189 67.6259 126.995 67.6268 127.836V187.83C67.6259 188.67 67.3314 189.476 66.8079 190.07C66.2843 190.665 65.5745 190.999 64.8341 191Z" fill="#6C63FF"/>
<path d="M52.2919 191H45.9505C45.2101 190.999 44.5003 190.665 43.9767 190.07C43.4532 189.476 43.1587 188.67 43.1578 187.83V127.836C43.1587 126.995 43.4532 126.189 43.9767 125.595C44.5003 125.001 45.2101 124.667 45.9505 124.666H52.2919C53.0323 124.667 53.7421 125.001 54.2657 125.595C54.7892 126.189 55.0837 126.995 55.0845 127.836V187.83C55.0837 188.67 54.7892 189.476 54.2656 190.07C53.7421 190.665 53.0323 190.999 52.2919 191Z" fill="#6C63FF"/>
<path d="M35.5679 132.487C35.5679 132.487 33.1722 156.942 57.3591 156.111C81.5461 155.281 72.1358 131.251 72.1358 131.251C72.1358 131.251 67.0812 126.742 54.3044 131.103C41.5275 135.464 35.5679 132.487 35.5679 132.487Z" fill="#CCCCCC"/>
<path d="M45.9619 90.624C44.7943 90.6248 43.6526 90.2344 42.6798 89.5016L1.25019 58.3763C0.633217 57.9117 0.203798 57.1882 0.0561578 56.3646C-0.0914827 55.541 0.0547085 54.6846 0.462646 53.9832L3.96252 47.9807C4.16492 47.6336 4.42557 47.335 4.72961 47.1022C5.03364 46.8694 5.37511 46.7069 5.73449 46.6238C6.09387 46.5408 6.46414 46.539 6.82415 46.6184C7.18416 46.6978 7.52685 46.857 7.83267 47.0868L49.2622 78.2118C50.3318 79.0149 51.1447 80.1881 51.5803 81.5572C52.016 82.9262 52.0511 84.4183 51.6806 85.8119C51.31 87.2054 50.5536 88.4262 49.5234 89.2931C48.4932 90.1599 47.2442 90.6266 45.9619 90.624Z" fill="#6C63FF"/>
<path d="M53.4842 62.055C65.5858 62.055 75.396 50.9191 75.396 37.1823C75.396 23.4454 65.5858 12.3094 53.4842 12.3094C41.3826 12.3094 31.5724 23.4454 31.5724 37.1823C31.5724 50.9191 41.3826 62.055 53.4842 62.055Z" fill="#6C63FF"/>
<path d="M48.4198 31.9811H43.7919V32.9565H48.4198V31.9811Z" fill="#2F2E41"/>
<path d="M63.0277 31.9811H58.3998V32.9565H63.0277V31.9811Z" fill="#2F2E41"/>
<path d="M75.618 137.639C75.618 137.639 77.5099 64.6231 51.0235 69.6341C24.5372 74.645 35.5731 145.156 35.5731 145.156C35.5731 145.156 41.2488 158.041 55.1226 143.724C68.9964 129.407 75.618 137.639 75.618 137.639Z" fill="#2F2E41"/>
<path d="M6.34689 128.011C5.80772 128.011 5.27996 127.835 4.82714 127.502C4.37431 127.17 4.01572 126.696 3.79451 126.138L1.19903 119.571C1.04891 119.191 0.966153 118.781 0.955519 118.365C0.944886 117.949 1.00659 117.534 1.13706 117.145C1.26754 116.756 1.46423 116.4 1.71594 116.097C1.96766 115.795 2.26945 115.551 2.60408 115.381L47.9335 92.2981C48.648 91.9342 49.4186 91.7337 50.2014 91.7079C50.9842 91.6822 51.7637 91.8317 52.4956 92.1479C53.2275 92.4641 53.8973 92.9409 54.4669 93.5509C55.0364 94.161 55.4945 94.8925 55.8151 95.7035C56.1356 96.5146 56.3123 97.3893 56.335 98.2779C56.3577 99.1664 56.226 100.051 55.9474 100.882C55.6688 101.713 55.2488 102.473 54.7113 103.12C54.1739 103.766 53.5295 104.286 52.815 104.65L7.48572 127.733C7.12767 127.916 6.73952 128.011 6.34689 128.011Z" fill="#6C63FF"/>
<path d="M65.8433 16.1737C61.5798 12.8877 56.1987 15.12 52.056 17.465C48.0327 19.7425 43.4989 22.6403 38.9466 20.4466C37.1687 19.5899 35.7236 17.9141 35.4725 15.6719C35.1733 13.001 36.5962 10.5005 38.1786 8.68454C39.8985 6.81646 41.9023 5.31744 44.0928 4.2601C46.2404 3.16326 48.5026 2.38244 50.8245 1.93661C55.4239 1.03454 60.1466 1.39296 64.5993 2.98199C69.052 4.57102 73.1058 7.34469 76.4231 11.072C79.6322 14.7873 82.1116 19.232 83.6982 24.1136C85.2849 28.9951 85.9426 34.2028 85.6283 39.3937C85.2662 44.9269 83.7095 50.5689 80.5863 54.9124C77.6559 58.9878 73.268 61.8529 68.5849 62.0921C67.4374 62.153 66.2877 62.047 65.1639 61.7766C64.3549 61.5808 64.0092 62.9909 64.8213 63.1875C69.6988 64.3681 74.7516 62.6139 78.6202 59.1598C82.6925 55.5238 85.1912 50.0191 86.2867 44.3474C88.3832 33.4935 85.7569 21.8129 79.7383 13.1238C76.7663 8.79561 72.9165 5.34725 68.517 3.07257C63.9733 0.769611 59.0096 -0.264297 54.0416 0.0574023C49.0872 0.339831 44.2808 2.06855 40.0872 5.07643C36.3361 7.82816 32.1085 13.6614 35.1677 18.8225C36.3117 20.7525 38.2109 21.9281 40.1825 22.4113C42.4451 22.9109 44.7858 22.6795 46.9382 21.7432C51.8389 19.7789 56.3714 15.3895 61.8568 16.0547C63.0523 16.1955 64.1985 16.6705 65.1928 17.4371C65.8808 17.9674 66.5264 16.7002 65.8433 16.1737Z" fill="#2F2E41"/>
<path d="M60.2574 39.4279C56.585 41.1402 49.0762 43.8355 48.4199 40.9178C47.5996 37.2707 56.5733 57.8397 60.2574 39.4279Z" stroke="black"/>
</svg>
