<svg width="39" height="39" viewBox="0 0 39 39" fill="none" xmlns="http://www.w3.org/2000/svg">
<path d="M9.75 15.5391C9.75 16.0932 9.97012 16.6246 10.3619 17.0164C10.7538 17.4082 11.2852 17.6283 11.8393 17.6283C12.3934 17.6283 12.9248 17.4082 13.3166 17.0164C13.7085 16.6246 13.9286 16.0932 13.9286 15.5391C13.9286 14.9849 13.7085 14.4535 13.3166 14.0617C12.9248 13.6699 12.3934 13.4498 11.8393 13.4498C11.2852 13.4498 10.7538 13.6699 10.3619 14.0617C9.97012 14.4535 9.75 14.9849 9.75 15.5391ZM25.0714 15.5391C25.0714 16.0932 25.2915 16.6246 25.6834 17.0164C26.0752 17.4082 26.6066 17.6283 27.1607 17.6283C27.7148 17.6283 28.2462 17.4082 28.6381 17.0164C29.0299 16.6246 29.25 16.0932 29.25 15.5391C29.25 14.9849 29.0299 14.4535 28.6381 14.0617C28.2462 13.6699 27.7148 13.4498 27.1607 13.4498C26.6066 13.4498 26.0752 13.6699 25.6834 14.0617C25.2915 14.4535 25.0714 14.9849 25.0714 15.5391ZM19.5 0C8.73147 0 0 8.73147 0 19.5C0 30.2685 8.73147 39 19.5 39C30.2685 39 39 30.2685 39 19.5C39 8.73147 30.2685 0 19.5 0ZM30.9475 30.9475C29.4589 32.4362 27.7266 33.6027 25.7983 34.421C23.8092 35.2654 21.6894 35.692 19.5 35.692C17.3106 35.692 15.1908 35.2654 13.1973 34.421C11.272 33.6079 9.52315 32.4282 8.0481 30.9475C6.55949 29.4589 5.39297 27.7266 4.57467 25.7983C3.7346 23.8092 3.30804 21.6894 3.30804 19.5C3.30804 17.3106 3.7346 15.1908 4.57902 13.1973C5.39213 11.272 6.57183 9.52315 8.05245 8.0481C9.54107 6.55949 11.2734 5.39297 13.2017 4.57467C15.1908 3.7346 17.3106 3.30804 19.5 3.30804C21.6894 3.30804 23.8092 3.7346 25.8027 4.57902C27.728 5.39213 29.4768 6.57183 30.9519 8.05245C32.4405 9.54107 33.607 11.2734 34.4253 13.2017C35.2654 15.1908 35.692 17.3106 35.692 19.5C35.692 21.6894 35.2654 23.8092 34.421 25.8027C33.6088 27.7272 32.429 29.4748 30.9475 30.9475ZM26.1161 20.4141H24.0224C23.8396 20.4141 23.6829 20.5533 23.6699 20.7362C23.5045 22.8907 21.6981 24.5926 19.5 24.5926C17.3019 24.5926 15.4912 22.8907 15.3301 20.7362C15.3171 20.5533 15.1604 20.4141 14.9776 20.4141H12.8839C12.8367 20.414 12.7899 20.4236 12.7465 20.4421C12.7031 20.4607 12.6639 20.4879 12.6313 20.5221C12.5988 20.5563 12.5735 20.5968 12.5571 20.6411C12.5406 20.6854 12.5334 20.7325 12.5357 20.7797C12.7272 24.449 15.7785 27.3783 19.5 27.3783C23.2215 27.3783 26.2728 24.449 26.4643 20.7797C26.4666 20.7325 26.4594 20.6854 26.4429 20.6411C26.4265 20.5968 26.4012 20.5563 26.3687 20.5221C26.3361 20.4879 26.2969 20.4607 26.2535 20.4421C26.21 20.4236 26.1633 20.414 26.1161 20.4141Z" fill="black"/>
</svg>
