<svg width="52" height="52" viewBox="0 0 52 52" fill="none" xmlns="http://www.w3.org/2000/svg">
<path fill-rule="evenodd" clip-rule="evenodd" d="M26 43.3333C35.5734 43.3333 43.3333 35.5734 43.3333 26C43.3333 16.4266 35.5734 8.66667 26 8.66667C16.4266 8.66667 8.66667 16.4266 8.66667 26C8.66667 35.5734 16.4266 43.3333 26 43.3333ZM26 45.5C36.7694 45.5 45.5 36.7694 45.5 26C45.5 15.2306 36.7694 6.5 26 6.5C15.2306 6.5 6.5 15.2306 6.5 26C6.5 36.7694 15.2306 45.5 26 45.5Z" fill="black"/>
<path fill-rule="evenodd" clip-rule="evenodd" d="M23.0599 23.0198C23.1758 23.4509 23.218 23.9243 23.0772 24.3122C23.0498 24.3873 23.0062 24.4554 22.9494 24.5117C22.8925 24.5679 22.824 24.6109 22.7486 24.6375C22.6732 24.6641 22.5928 24.6737 22.5133 24.6656C22.4338 24.6575 22.357 24.6319 22.2885 24.5906C21.9986 24.4084 21.7214 24.2068 21.4587 23.9872L21.2475 23.8138C21.0525 23.6557 20.864 23.5018 20.669 23.3556C20.1251 22.9493 19.694 22.7348 19.3202 22.7533C18.928 22.7728 18.4535 23.0468 17.8447 23.5278C17.6725 23.6633 17.4883 23.8171 17.2976 23.9774C16.8773 24.3284 16.4223 24.7087 15.99 24.986C15.9135 25.0353 15.8258 25.0645 15.735 25.0709C15.6443 25.0773 15.5533 25.0608 15.4706 25.0228C15.3879 24.9848 15.3161 24.9266 15.2619 24.8535C15.2076 24.7804 15.1727 24.6948 15.1602 24.6047C15.106 24.2093 15.1884 23.7153 15.3433 23.2321C15.5206 22.6878 15.7741 22.1713 16.0962 21.6981C16.7679 20.7155 17.8577 19.7893 19.317 19.8499C20.7253 19.9095 21.7696 20.735 22.398 21.6342C22.7143 22.0848 22.9385 22.5691 23.0599 23.0198ZM28.8492 23.0198C28.7322 23.4509 28.69 23.9243 28.8308 24.3122C28.8581 24.3875 28.9018 24.4557 28.9587 24.5121C29.0156 24.5685 29.0843 24.6115 29.1598 24.6381C29.2354 24.6648 29.3159 24.6743 29.3955 24.6661C29.4752 24.6579 29.552 24.6321 29.6205 24.5906C29.9044 24.4194 30.185 24.2006 30.4493 23.9872L30.6616 23.8138C30.8566 23.6557 31.0451 23.5018 31.2401 23.3556C31.7829 22.9493 32.2151 22.7348 32.5878 22.7533C32.981 22.7728 33.4545 23.0468 34.0644 23.5278C34.2355 23.6633 34.4197 23.8171 34.6115 23.9774C35.0307 24.3284 35.4857 24.7087 35.919 24.986C35.9955 25.035 36.0831 25.064 36.1738 25.0703C36.2644 25.0766 36.3552 25.06 36.4377 25.022C36.5203 24.9841 36.5919 24.9259 36.6461 24.853C36.7003 24.7801 36.7353 24.6947 36.7478 24.6047C36.802 24.2093 36.7196 23.7153 36.5658 23.2321C36.3885 22.6878 36.135 22.1713 35.8129 21.6981C35.1412 20.7155 34.0503 19.7893 32.591 19.8499C31.1827 19.9095 30.1395 20.735 29.51 21.6342C29.2129 22.0553 28.9894 22.5238 28.8492 23.0198ZM26 40.0833C21.6255 40.0833 17.8339 36.7813 15.9705 31.9583L15.9164 31.8186C15.4332 30.5283 16.4667 29.25 17.8458 29.25H34.1554C35.5345 29.25 36.569 30.5283 36.0837 31.8186L36.0306 31.9583C34.1662 36.7813 30.3745 40.0833 26 40.0833ZM33.8824 31.4947C33.5574 32.2833 33.1793 33.007 32.7611 33.6613H19.239C18.8616 33.0686 18.5309 32.4475 18.2499 31.8034V31.4947H33.8824Z" fill="black"/>
<path fill-rule="evenodd" clip-rule="evenodd" d="M33.8781 35.828C34.1236 35.5081 34.3583 35.1748 34.5822 34.8281C35.1879 33.8811 35.6909 32.8722 36.0827 31.8186C36.4976 30.7168 35.8032 29.6227 34.7317 29.3269C34.5436 29.2754 34.3494 29.2495 34.1543 29.25H17.8458C17.6507 29.2499 17.4565 29.2761 17.2684 29.328C16.7808 29.4606 16.3589 29.7679 16.0832 30.1914C15.9289 30.4302 15.8335 30.7022 15.8047 30.9851C15.7759 31.2679 15.8145 31.5536 15.9175 31.8186C16.027 32.1066 16.1433 32.3919 16.2663 32.6744C16.6029 33.44 16.9867 34.1579 17.4179 34.8281C17.6418 35.1748 17.8765 35.5077 18.1221 35.8269C20.1522 38.4605 22.9321 40.0833 26.0001 40.0833C29.0681 40.0833 31.8479 38.4605 33.8781 35.828ZM33.8824 31.4947C33.572 32.248 33.1969 32.9729 32.7612 33.6613H19.239C18.8616 33.0686 18.5309 32.4475 18.2499 31.8034V31.4947H33.8824Z" fill="black"/>
</svg>
