<svg width="139" height="101" viewBox="0 0 139 101" fill="none" xmlns="http://www.w3.org/2000/svg">
<path d="M0 91.546C0 91.657 0.0934104 91.7461 0.209733 91.7461H138.79C138.907 91.7461 139 91.657 139 91.546C139 91.4351 138.907 91.346 138.79 91.346H0.209733C0.0934104 91.346 0 91.4351 0 91.546Z" fill="#3F3D56"/>
<path d="M76.1489 34.9485L77.58 26.4242L67.927 22.6739L66.4977 35.6293L76.1489 34.9485Z" fill="#A0616A"/>
<path d="M73.7097 29.1642C79.146 29.1642 83.553 24.9609 83.553 19.7758C83.553 14.5908 79.146 10.3875 73.7097 10.3875C68.2733 10.3875 63.8663 14.5908 63.8663 19.7758C63.8663 24.9609 68.2733 29.1642 73.7097 29.1642Z" fill="#A0616A"/>
<path d="M72.9253 7.15492C73.2109 7.31293 73.5916 7.07423 73.6832 6.77165C73.7749 6.46907 73.6673 6.148 73.5634 5.85046C73.3871 5.3512 73.2091 4.85027 73.0329 4.35101C72.6557 3.28694 72.2556 2.18588 71.4414 1.37564C70.2094 0.153558 68.2531 -0.157427 66.4924 0.0678268C64.2311 0.356958 61.9981 1.52525 60.9477 3.45672C59.8955 5.38819 60.3431 8.08451 62.2448 9.28978C59.5359 12.25 58.5913 15.5515 58.7411 19.4783C58.8909 23.4051 63.3763 27.0193 66.3038 29.7862C66.9577 29.408 67.5516 27.6379 67.1921 26.9941C66.8325 26.3502 67.3472 25.6056 66.903 25.0138C66.4589 24.4221 66.0852 25.3652 66.5364 24.7751C66.8202 24.4036 65.7116 23.548 66.1346 23.3261C68.1755 22.2503 68.8541 19.8229 70.1371 17.9654C71.6828 15.7246 74.33 14.2067 77.1306 13.9546C78.6727 13.815 80.303 14.0672 81.5667 14.9211C82.8304 15.7751 83.6499 17.3014 83.3573 18.7538C84.117 18.0175 84.4941 16.94 84.3514 15.918C84.2086 14.8959 83.5495 13.9478 82.6136 13.4284C83.1811 11.6365 82.6947 9.57555 81.3763 8.18873C80.058 6.80191 74.7072 7.03893 72.7826 7.4037" fill="#2F2E41"/>
<path d="M72.6257 14.0067C70.0755 14.2689 68.2337 16.3769 66.6792 18.3218C65.7839 19.443 64.8445 20.6819 64.8674 22.0923C64.8903 23.5177 65.8896 24.7398 66.3672 26.0914C67.148 28.3002 66.3866 30.9259 64.529 32.4388C66.3655 32.7716 68.35 31.4588 68.6672 29.7021C69.0356 27.658 67.4106 25.6845 67.6027 23.6169C67.7719 21.7964 69.2771 20.3944 70.5548 19.0328C71.8326 17.6712 73.0346 15.8642 72.446 14.1243" fill="#2F2E41"/>
<path d="M73.114 99.9914C73.114 99.9914 51.7882 102.009 50.202 99.6552C48.6157 97.3018 71.8432 94.9484 71.8432 94.9484L73.114 99.9914Z" fill="#A0616A"/>
<path d="M59.5165 62.2799L59.0759 64.5106C60.2762 66.2 60.3907 67.9852 59.6928 69.8444L84.0147 70.0125C83.7539 67.4994 83.4666 64.8064 84.4677 62.3371L59.5165 62.2799Z" fill="#A0616A"/>
<path d="M99.3552 78.8663L90.5341 72.1356C89.362 71.2413 88.6024 69.9116 88.4526 68.4878L87.0938 55.6668L95.1923 53.0916L97.1451 65.7865L102.011 76.3347L99.357 78.8663H99.3552Z" fill="#A0616A"/>
<path d="M65.597 34.1232L77.4055 33.6189L89.919 39.304L84.8079 62.5321L58.8997 64.3812L55.3748 38.6619L65.597 34.1232Z" fill="#6C63FF"/>
<path d="M84.4677 67.8843C86.2425 70.115 86.9863 75.4858 87.7406 80.828C87.7406 80.828 54.9588 80.6599 54.7826 80.6599C54.6063 80.6599 59.7933 69.3972 59.7933 69.3972L84.4677 67.8843Z" fill="#2F2E41"/>
<path d="M85.5393 79.4025L87.7424 80.828C87.7424 80.828 118.938 78.8108 116.294 88.2244C113.651 97.638 105.367 99.1509 105.367 99.1509L71.8802 101L71.5277 95.7889C71.5277 95.7889 39.2747 102.681 36.2785 88.5606C33.2823 74.4402 54.7843 80.6599 54.7843 80.6599L85.5393 79.4025Z" fill="#2F2E41"/>
<path d="M72.3754 90.5778C72.3754 90.5778 73.1139 86.8796 78.4013 88.3925C83.6887 89.9054 86.6848 91.9226 86.6848 91.9226L73.9951 94.9484L72.3754 90.5778Z" fill="#A0616A"/>
<path d="M85.601 38.914C85.601 38.914 91.5933 36.8968 93.8845 43.4527C96.1757 50.0086 95.647 55.3878 95.647 55.3878L86.8347 58.0774L85.601 38.914Z" fill="#6C63FF"/>
<path d="M44.5092 79.89L42.5864 76.6592L46.7405 66.7967L48.6933 54.1002L56.7918 56.6754L55.4153 69.6528C55.2743 70.9791 54.5676 72.2163 53.4766 73.0484L44.5092 79.8917V79.89Z" fill="#A0616A"/>
<path d="M58.2828 38.914C58.2828 38.914 52.2905 36.8968 49.9993 43.4527C47.7081 50.0086 48.2368 55.3878 48.2368 55.3878L57.0491 58.0774L58.2828 38.914Z" fill="#6C63FF"/>
<path d="M101.904 80.3506C104.24 80.3506 106.134 77.6789 106.134 74.3831C106.134 71.0873 104.24 68.4155 101.904 68.4155C99.5676 68.4155 97.6738 71.0873 97.6738 74.3831C97.6738 77.6789 99.5676 80.3506 101.904 80.3506Z" fill="#A0616A"/>
<path d="M42.5088 81.3592C44.8449 81.3592 46.7387 78.6875 46.7387 75.3917C46.7387 72.0959 44.8449 69.4241 42.5088 69.4241C40.1727 69.4241 38.2789 72.0959 38.2789 75.3917C38.2789 78.6875 40.1727 81.3592 42.5088 81.3592Z" fill="#A0616A"/>
<path d="M58.6617 85.3667L73.9952 89.5692L76.9913 94.6122L71.2616 95.7889" fill="#2F2E41"/>
</svg>
