<svg width="104" height="158" viewBox="0 0 104 158" fill="none" xmlns="http://www.w3.org/2000/svg">
<path d="M102.699 56.5253C102.699 56.5253 100.801 56.3841 100.801 54.9102C100.801 53.4364 99.4428 50.6838 99.4428 50.6838C99.4428 50.671 98.2675 45.8899 96.6444 45.1299C95.0212 44.3699 92.9356 39.9072 92.9356 39.9072C92.9356 39.9072 92.5792 37.4859 91.8519 36.9647C91.1246 36.4434 90.142 35.1673 88.6922 33.3468C87.2424 31.5263 81.1977 30.2656 81.1977 30.2656C81.1977 30.2656 70.2689 26.8865 67.1718 25.785C66.8903 25.6945 66.6272 25.5886 66.3867 25.4692C65.8473 25.0917 63.4968 25.084 63.4968 25.084C63.2511 24.2572 63.0151 23.3072 62.9381 22.447C62.9381 22.3545 62.938 22.2621 62.914 22.1697C66.3674 21.0814 68.9686 19.3656 70.24 17.3373C70.2978 17.2397 70.3459 17.137 70.3989 17.0394C70.6058 17.0031 70.7963 16.9441 70.958 16.8663C71.1197 16.7885 71.2492 16.6936 71.3382 16.5875C71.6175 16.2563 71.6223 15.8686 71.9691 15.5605C72.3737 15.1958 73.1443 15.0007 73.7512 14.726C75.2829 14.0327 75.6779 12.8644 75.6056 11.8014C75.5574 10.9412 75.2974 10.0733 75.3985 9.21827L75.4274 9.00259C75.4563 8.8742 75.49 8.74582 75.5334 8.62257C75.7694 7.98578 76.2848 7.38495 76.5738 6.7533C76.8627 6.12165 76.8916 5.4104 76.2173 4.86605C75.2299 4.0675 73.1733 3.9083 71.367 3.82613C69.32 3.7337 67.4897 3.85438 66.1796 2.94799C65.5664 2.47425 64.8766 2.03006 64.1181 1.62049C63.8484 1.48697 61.2282 0.634503 61.2282 0.578014C58.6708 -0.0534019 55.7721 -0.171921 53.0641 0.244214C51.7058 0.454765 50.4246 0.798835 49.0471 0.97087C46.0753 1.34575 42.6555 0.940058 40.1316 1.84645C38.7252 2.35999 37.8823 3.17651 37.0924 3.97249C36.4502 4.62811 35.7983 5.28287 35.1368 5.93677C34.0724 7.01263 32.9887 8.10646 32.5407 9.29787C32.4465 9.55712 32.3886 9.81975 32.3673 10.0836V10.0964C32.3673 10.1914 32.3673 10.2864 32.3673 10.3814V10.5021C32.3673 10.592 32.3673 10.6793 32.3962 10.7589C32.4251 10.8385 32.4203 10.8642 32.4347 10.9181C32.4492 10.972 32.4733 11.0927 32.5022 11.1748C32.5311 11.257 32.5889 11.4008 32.6467 11.5138C32.6708 11.5626 32.7045 11.6088 32.7334 11.655C32.7815 11.7423 32.8393 11.827 32.902 11.9118C32.9357 11.9554 32.9694 12.0016 33.0079 12.0453C33.0802 12.1352 33.1669 12.2225 33.2536 12.3021C33.2921 12.338 33.321 12.3714 33.3595 12.4048C33.4939 12.5242 33.6419 12.6391 33.8026 12.7488C34.8334 13.4344 36.3506 13.8709 37.4729 14.5128C37.4729 14.5385 37.4729 14.5642 37.4729 14.5873C37.4729 14.6592 37.4729 14.7285 37.4729 14.8004C37.5324 16.232 38.2472 17.6342 39.5551 18.885C40.8629 20.1358 42.7242 21.1973 44.9771 21.9771C44.9771 22.0747 45.0012 22.1748 45.0108 22.2724C45.1047 23.0346 45.087 23.7995 44.9578 24.5602C44.7617 24.437 44.5162 24.339 44.2394 24.2732C43.9626 24.2074 43.6616 24.1756 43.3587 24.1802C43.1518 24.1748 42.9444 24.1843 42.7422 24.2084L42.6988 24.1904V24.2135C41.6392 24.3522 40.3339 24.9402 39.0864 26.6118C39.0864 26.6118 35.291 28.8919 32.401 28.7969C29.5111 28.7019 22.1947 31.1694 22.1947 31.1694C22.1947 31.1694 15.0566 33.6395 13.5249 36.1559C12.6688 37.5827 11.6424 38.979 10.452 40.336L1.628 50.0291L0 57.7193C0 57.7193 0.900698 61.1394 0.722485 61.6607C0.544272 62.1819 4.42642 66.8833 4.42642 66.8833C4.42642 66.8833 17.2529 78.8975 22.4934 79.5138L22.8691 79.3726C23.0933 79.435 23.3311 79.4824 23.5771 79.5138L24.656 79.1081C24.7208 79.5602 24.6933 80.0148 24.5741 80.4638C23.8516 81.6501 24.8438 89.3917 26.1058 90.9092C27.3677 92.4267 26.9198 112.324 26.9198 112.324L26.7416 114.08C26.7416 114.08 26.7416 114.136 26.7849 114.234L26.7416 114.65L26.8716 114.686C27.0067 115.243 26.9627 115.808 26.7416 116.357C26.2888 117.128 26.1058 119.305 26.1058 119.305C26.1058 119.305 22.4982 131.599 24.2081 134.069C25.9179 136.539 27.3725 139.246 27.3725 139.246C27.3725 139.246 29.1788 142.327 27.4592 142.853C25.7397 143.38 20.8509 144.263 21.8576 145.547C22.7727 146.733 26.2455 149.912 26.7608 150.377L26.7175 150.621L26.0094 154.711C26.1241 155.251 26.3989 155.778 26.8235 156.272C27.5989 157.163 29.1065 158.087 31.9724 157.987C32.454 157.969 33.0127 157.939 33.5522 157.9C38.7974 157.525 45.2564 156.277 45.2564 156.277C44.9211 156.164 44.6137 156.028 44.3413 155.874C44.0835 155.741 43.8792 155.581 43.7409 155.405C43.6026 155.228 43.5332 155.038 43.5369 154.847C43.614 154.102 40.9986 150.554 40.3484 149.681C40.2472 149.555 40.1942 149.483 40.1942 149.483C40.1942 149.483 46.1571 146.161 45.1649 143.215C45.1649 143.215 38.5662 141.161 40.7385 140.034C42.9108 138.907 46.7929 135.669 46.7929 135.669C46.7929 135.669 46.9711 123.562 46.7929 121.755C46.607 120.5 46.7187 119.238 47.1253 117.998C47.1975 117.811 47.2842 117.628 47.3757 117.449C50.3799 117.688 53.4127 117.811 56.4501 117.816C57.558 117.816 58.685 117.816 59.8217 117.78C59.8217 117.951 59.8362 118.136 59.8651 118.335C60.1155 121.334 60.5828 126.592 60.9633 128.546C61.5027 131.348 64.4842 138.897 64.4842 138.897C64.4842 138.897 58.7958 140.843 65.4764 145.639C65.4764 145.639 65.4764 147.378 65.0333 147.629C64.5602 148.452 64.179 149.289 63.8917 150.135C63.6124 151.039 63.4968 151.953 63.9495 152.428C65.0333 153.563 71.5356 153.471 71.5356 153.471L71.6946 153.455C72.9221 153.388 74.1627 153.451 75.3442 153.641C76.5258 153.831 77.6248 154.144 78.5774 154.562C81.0483 155.62 90.4262 155.155 95.5028 154.819C97.4921 154.685 98.8215 154.562 98.8215 154.562C98.8859 154.442 98.9088 154.317 98.8889 154.192C98.8359 153.527 97.8581 152.069 91.2306 150.767C91.2306 150.767 84.9979 148.533 85.0846 146.587H84.9546H84.2321C84.7571 146.571 85.0943 146.587 85.0943 146.587C85.0943 146.587 82.6523 141.837 83.6493 141.451C84.6463 141.066 81.66 135.803 81.66 135.803C81.66 135.803 79.9502 126.97 79.8587 126.351C79.8625 125.82 80.0134 125.292 80.3066 124.785L79.8587 119.942C79.8587 119.942 79.7719 118.332 79.8587 117.808C79.844 117.354 79.7749 116.9 79.6515 116.45C79.6082 116.27 79.5648 116.083 79.5167 115.898C81.8527 115.582 83.3699 115.289 83.3699 115.289L83.1002 98.4325C85.0846 96.3783 85.4507 91.872 85.441 88.6753C85.441 86.6211 85.2676 85.1011 85.2676 85.1011L87.9794 82.7414C87.9794 82.7414 88.6055 79.9169 87.6133 79.2981C87.175 79.0182 87.3725 78.7281 87.7337 78.4893C87.9213 78.41 88.1193 78.3379 88.3262 78.2736C88.3262 78.2736 88.2973 78.2505 88.2635 78.2171C88.4529 78.1328 88.6542 78.0564 88.8656 77.9886C88.8656 77.9886 87.9023 77.1926 88.7645 76.8562C89.5737 77.1489 90.2961 77.3698 90.8452 77.5495C90.8067 77.7369 90.7682 77.8448 90.7682 77.8448L90.9994 77.588C91.5292 77.7472 91.8519 77.8448 91.8519 77.8448C91.8519 77.8448 96.1001 73.3334 96.0086 72.6683C95.9171 72.0033 98.8985 69.202 98.8985 69.202C98.8985 69.202 99.2598 67.7307 100.888 67.1144C102.516 66.4982 102.15 62.033 102.15 62.033C102.15 62.033 102.602 59.7067 103.686 58.7566C104.77 57.8066 102.699 56.5253 102.699 56.5253ZM21.4144 54.5456L21.4963 55.6215C21.0147 55.2081 20.6679 54.9102 20.6679 54.9102L21.4144 54.5456Z" fill="url(#paint0_linear_0_84)"/>
<path d="M92.0831 75.8959L91.0428 78.2582C91.0428 78.2582 82.7101 75.9909 81.2073 73.11C79.7046 70.229 83.7216 69.1352 83.7216 69.1352L91.4859 70.8889L92.0831 75.8959Z" fill="white"/>
<path opacity="0.1" d="M92.0831 75.8959L91.0428 78.2582C91.0428 78.2582 82.7101 75.9909 81.2073 73.11C79.7046 70.229 83.7216 69.1352 83.7216 69.1352L91.4859 70.8889L92.0831 75.8959Z" fill="black"/>
<path d="M45.319 156.293C45.319 156.293 37.6125 157.802 32.3143 157.992C29.5014 158.093 28.0228 157.173 27.2617 156.288C26.846 155.795 26.5778 155.271 26.467 154.734L27.1558 150.664L27.5218 148.497L38.7781 146.939L40.3724 149.537L40.5217 149.735C41.1623 150.603 43.7296 154.133 43.6525 154.87C43.6494 155.059 43.7177 155.246 43.8534 155.42C43.9892 155.595 44.1895 155.752 44.4424 155.884C44.7009 156.04 44.9955 156.177 45.319 156.293Z" fill="white"/>
<path d="M97.9594 154.223C97.9787 154.347 97.9559 154.471 97.892 154.59C97.892 154.59 81.4097 156.056 78.0381 154.59C77.0875 154.162 75.9795 153.844 74.785 153.658C73.5906 153.471 72.3362 153.42 71.1023 153.507C71.1023 153.507 64.7252 153.599 63.6607 152.48C63.2176 152.01 63.3332 151.098 63.6077 150.2C63.8878 149.357 64.2609 148.525 64.7251 147.706L64.9804 147.599L66.4976 146.949L84.2611 146.669H84.396C84.3093 148.605 90.4263 150.826 90.4263 150.826C96.9239 152.11 97.8824 153.561 97.9594 154.223Z" fill="white"/>
<path opacity="0.1" d="M97.9593 154.223C97.9762 154.347 97.9518 154.471 97.8871 154.59C97.8871 154.59 81.4096 156.056 78.038 154.59C77.088 154.162 75.9807 153.845 74.7872 153.658C73.5936 153.472 72.3401 153.42 71.107 153.507C71.107 153.507 64.725 153.599 63.6654 152.48C63.2223 152.007 63.3331 151.098 63.6076 150.2C66.064 150.331 69.9414 150.657 71.4634 151.435C73.7657 152.618 77.6672 153.799 80.061 153.892C81.9346 153.956 93.1428 154.146 97.9593 154.223Z" fill="black"/>
<path opacity="0.1" d="M45.319 156.293C45.319 156.293 37.6125 157.802 32.3143 157.993C29.5014 158.093 28.0227 157.173 27.2665 156.285C29.2269 156.637 31.9482 157.007 33.3788 156.668C35.0742 156.267 41.0853 156.008 44.4569 155.897C44.7135 156.047 45.0029 156.18 45.319 156.293Z" fill="black"/>
<path d="M56.7536 34.623C50.3957 33.3057 42.2172 28.9535 44.2594 26.9199C44.713 26.4067 44.9825 25.8529 45.0542 25.2869C45.1856 24.5185 45.2049 23.7459 45.112 22.9759C44.9688 21.715 44.6841 20.4597 44.2594 19.2168C44.2594 19.2168 64.1085 19.4556 62.9525 21.0142C62.6154 21.4713 62.5624 22.2647 62.6539 23.1531C62.7454 24.0415 62.9862 25.0455 63.2367 25.8954C63.5835 27.0611 63.9303 27.9495 63.9303 27.9495C63.9303 27.9495 62.7165 28.8559 62.0037 28.9047C61.2908 28.9535 65.8762 36.4999 56.7536 34.623Z" fill="#CF6F80"/>
<path opacity="0.1" d="M40.5075 149.735L40.3582 149.822C34.4242 145.996 27.2475 150.764 27.2475 150.764L27.1415 150.664L27.5076 148.497L38.7639 146.939L40.3582 149.537L40.5075 149.735Z" fill="black"/>
<path opacity="0.1" d="M84.4008 146.939C84.4008 146.939 80.0659 146.89 77.7539 147.979C75.442 149.067 64.2676 148.215 64.7492 147.979C64.8919 147.861 64.978 147.727 64.9997 147.588L66.5169 146.939L84.2804 146.659C84.3478 146.831 84.4008 146.939 84.4008 146.939Z" fill="black"/>
<path d="M47.8912 116.894C47.5683 117.32 47.3232 117.761 47.1591 118.211C46.7574 119.445 46.6458 120.701 46.8267 121.95C47.0049 123.747 46.8267 135.792 46.8267 135.792C46.8267 135.792 43.0168 139.004 40.8927 140.137C38.7686 141.269 45.2276 143.303 45.2276 143.303C46.1909 146.23 40.3533 149.537 40.3533 149.537C34.4193 145.711 27.2426 150.482 27.2426 150.482C27.2426 150.482 23.3412 146.887 22.3682 145.603C21.3953 144.32 26.1781 143.431 27.8591 142.91C29.5401 142.389 27.7772 139.315 27.7772 139.315C27.7772 139.315 26.3563 136.622 24.6705 134.164C22.9847 131.707 26.5297 119.475 26.5297 119.475C26.5297 119.475 26.7128 117.302 27.1511 116.545C27.3722 115.998 27.4162 115.436 27.2811 114.881C27.2522 114.694 27.2185 114.537 27.1944 114.432C27.1703 114.326 27.1511 114.278 27.1511 114.278L27.2185 114.216L29.6268 111.823C29.6268 111.823 49.0472 115.387 47.8912 116.894Z" fill="#6C63FF"/>
<path d="M84.4006 146.656C84.4006 146.656 80.0657 146.607 77.7537 147.683C75.4418 148.759 64.2674 147.919 64.749 147.683C65.2307 147.447 65.1921 145.698 65.1921 145.698C58.6368 140.928 64.2288 138.992 64.2288 138.992C64.2288 138.992 61.3004 131.481 60.7705 128.695C60.3997 126.749 59.9421 121.519 59.6964 118.532C59.5905 117.248 59.5279 116.365 59.5279 116.365L64.8839 115.79L65.5727 115.716L78.4907 114.334C78.4907 114.334 78.8471 115.618 79.0879 116.668C79.208 117.117 79.2756 117.569 79.2902 118.021C79.2035 118.535 79.2902 120.142 79.2902 120.142L79.7285 124.962C79.4422 125.467 79.2945 125.992 79.2902 126.52C79.3769 127.134 81.0579 135.921 81.0579 135.921C81.0579 135.921 83.9816 141.164 82.9845 141.541C81.9875 141.919 84.4006 146.656 84.4006 146.656Z" fill="#6C63FF"/>
<path opacity="0.1" d="M62.9525 21.0142C62.6154 21.4713 62.5624 22.2647 62.6539 23.1531C59.9952 24.0066 56.9388 24.443 53.8358 24.4121C50.7328 24.3812 47.7091 23.8843 45.112 22.9785C44.969 21.7167 44.6843 20.4605 44.2595 19.2168C44.2595 19.2168 64.1085 19.4505 62.9525 21.0142Z" fill="black"/>
<path d="M70.6254 15.3396C70.6293 16.2649 70.3561 17.1846 69.8162 18.0639C68.6095 20.0343 66.135 21.7138 62.8301 22.8056C59.5252 23.8974 55.6026 24.3313 51.7557 24.0304C47.9088 23.7296 44.3853 22.7135 41.8078 21.1617C39.2303 19.6099 37.7649 17.6223 37.6705 15.5502C37.6705 15.4783 37.6705 15.4115 37.6705 15.3396C37.6331 14.1733 38.0317 13.0146 38.8431 11.9313C39.6545 10.8479 40.8624 9.86156 42.3964 9.02969C43.9304 8.19782 45.7598 7.53711 47.7778 7.0861C49.7959 6.63509 51.9622 6.40282 54.1504 6.40282C56.3386 6.40282 58.5048 6.63509 60.5229 7.0861C62.5409 7.53711 64.3703 8.19782 65.9043 9.02969C67.4383 9.86156 68.6462 10.8479 69.4576 11.9313C70.269 13.0146 70.6676 14.1733 70.6302 15.3396H70.6254Z" fill="#CF6F80"/>
<path opacity="0.1" d="M56.7536 34.6229C50.3957 33.3057 42.2172 28.9535 44.2594 26.9199C44.713 26.4067 44.9825 25.8529 45.0542 25.2868L53.7577 29.0999L59.1426 31.4544L63.2367 25.898C63.5835 27.0637 63.9303 27.9521 63.9303 27.9521C63.9303 27.9521 62.7165 28.8585 62.0037 28.9073C61.2908 28.9561 65.8762 36.4999 56.7536 34.6229Z" fill="black"/>
<path d="M79.2614 51.4747L71.9932 116.565L62.5142 116.897L37.969 79.1543L41.9957 34.3456L42.8434 24.8786L53.7577 29.657L59.1475 32.0116L63.362 26.2934L71.1985 29.9343L79.2614 51.4747Z" fill="#6C63FF"/>
<path opacity="0.1" d="M47.8911 116.894C47.5682 117.32 47.3231 117.761 47.159 118.211C40.2616 117.644 33.5628 116.528 27.2858 114.902L27.1558 114.866L27.1991 114.452L27.2232 114.237L29.6315 111.844C29.6315 111.844 49.0471 115.387 47.8911 116.894Z" fill="black"/>
<path opacity="0.1" d="M64.9948 118.222C63.2315 118.381 61.4531 118.489 59.6676 118.545C59.5617 117.261 59.4991 116.378 59.4991 116.378L64.8551 115.803L64.9948 118.222Z" fill="black"/>
<path opacity="0.1" d="M79.0592 116.681C75.6346 117.156 70.346 117.69 65.6113 117.356L65.5439 115.728L78.4619 114.347C78.4619 114.347 78.8184 115.618 79.0592 116.681Z" fill="black"/>
<path opacity="0.1" d="M65.5247 117.654C45.7768 119.452 27.6905 114.298 27.6905 114.298L27.8639 112.552C27.8639 112.552 28.3119 92.7579 27.0692 91.2404C25.8265 89.7229 24.8584 82.0275 25.5616 80.8464C26.2648 79.6653 22.9944 61.9534 22.9944 61.9534L22.4646 54.7639L3.07309 50.576L11.7429 40.942C12.9139 39.5913 13.9211 38.2019 14.7581 36.7824C16.2657 34.2814 23.2641 31.8242 23.2641 31.8242C23.2641 31.8242 30.4408 29.3695 33.2778 29.4619C36.1147 29.5543 39.8331 27.2896 39.8331 27.2896C42.5786 23.5588 45.0639 25.2483 45.0639 25.2483C45.0639 25.4255 45.0639 25.2483 44.929 25.8004C43.9657 29.8958 60.5058 42.837 60.7418 43.0655L62.3168 63.5197L63.9111 89.4045L65.5247 117.654Z" fill="black"/>
<path d="M64.9948 117.654C45.2469 119.452 27.1559 114.298 27.1559 114.298L27.3341 112.552C27.3341 112.552 27.782 92.7579 26.5345 91.2404C25.287 89.7229 24.3237 82.0275 25.0318 80.8464C25.7398 79.6653 22.4645 61.9534 22.4645 61.9534L21.9299 54.7639L2.52878 50.5606L11.1986 40.9266C12.3671 39.5753 13.3741 38.186 14.2138 36.767C15.7165 34.266 22.7198 31.8088 22.7198 31.8088C22.7198 31.8088 29.8965 29.354 32.7286 29.4465C35.5608 29.5389 39.284 27.2742 39.284 27.2742C42.0342 23.5434 45.0639 25.2329 45.0639 25.2329C45.0639 25.4101 44.7749 25.4897 44.929 25.785C47.0483 29.7572 59.976 42.8216 60.212 43.0501L61.8062 63.5042L63.4005 89.3891L64.9948 117.654Z" fill="white"/>
<path opacity="0.1" d="M59.6726 43.633C57.5485 43.1605 46.297 36.3125 46.297 36.3125V34.7539C45.8876 34.2404 43.4552 34.5536 41.4804 34.9131L42.3281 25.446L43.2914 25.8723C45.4011 29.8419 59.4269 43.4044 59.6726 43.633Z" fill="black"/>
<path d="M60.207 43.0655C58.0781 42.593 46.8266 35.745 46.8266 35.745V34.1864C46.4172 33.6729 43.9848 33.9862 42.01 34.3456L42.8625 24.8786L43.8258 25.3048C45.9403 29.2744 59.971 42.8395 60.207 43.0655Z" fill="white"/>
<path opacity="0.1" d="M27.6905 77.2183C27.9554 77.2183 41.4225 76.4634 41.4225 76.4634C41.4225 76.4634 49.577 85.0112 49.0423 87.091C48.5077 89.1708 47.5396 91.0119 44.2595 90.6858C40.9794 90.3597 26.6068 90.9425 26.6068 90.9425L27.6905 77.2183Z" fill="black"/>
<path d="M27.1557 76.6508C27.4207 76.6508 40.8878 75.8959 40.8878 75.8959C40.8878 75.8959 49.0374 84.4463 48.5076 86.5236C47.9778 88.6008 47 90.4444 43.7247 90.1183C40.4495 89.7922 26.072 90.3751 26.072 90.3751L27.1557 76.6508Z" fill="white"/>
<path d="M37.3043 72.6375C37.3043 72.6375 49.6636 76.1783 49.9285 77.2593C50.1934 78.3403 43.6381 76.7869 42.222 76.5994C41.29 76.4797 40.3412 76.4007 39.385 76.3632L29.9398 76.4993L37.3043 72.6375Z" fill="#CF6F80"/>
<path opacity="0.1" d="M56.2238 44.0746C56.942 44.0746 57.5243 43.7642 57.5243 43.3813C57.5243 42.9984 56.942 42.688 56.2238 42.688C55.5056 42.688 54.9233 42.9984 54.9233 43.3813C54.9233 43.7642 55.5056 44.0746 56.2238 44.0746Z" fill="black"/>
<path d="M56.2238 43.7921C56.942 43.7921 57.5243 43.4818 57.5243 43.0989C57.5243 42.716 56.942 42.4056 56.2238 42.4056C55.5056 42.4056 54.9233 42.716 54.9233 43.0989C54.9233 43.4818 55.5056 43.7921 56.2238 43.7921Z" fill="#3F3D56"/>
<path opacity="0.1" d="M58.6177 74.0857C59.336 74.0857 59.9182 73.7753 59.9182 73.3924C59.9182 73.0095 59.336 72.6991 58.6177 72.6991C57.8995 72.6991 57.3173 73.0095 57.3173 73.3924C57.3173 73.7753 57.8995 74.0857 58.6177 74.0857Z" fill="black"/>
<path d="M58.6177 73.8007C59.336 73.8007 59.9182 73.4903 59.9182 73.1074C59.9182 72.7245 59.336 72.4141 58.6177 72.4141C57.8995 72.4141 57.3173 72.7245 57.3173 73.1074C57.3173 73.4903 57.8995 73.8007 58.6177 73.8007Z" fill="#3F3D56"/>
<path opacity="0.1" d="M57.5195 59.0802C58.2377 59.0802 58.8199 58.7698 58.8199 58.3869C58.8199 58.004 58.2377 57.6936 57.5195 57.6936C56.8012 57.6936 56.219 58.004 56.219 58.3869C56.219 58.7698 56.8012 59.0802 57.5195 59.0802Z" fill="black"/>
<path d="M57.5195 58.7977C58.2377 58.7977 58.8199 58.4873 58.8199 58.1044C58.8199 57.7215 58.2377 57.4111 57.5195 57.4111C56.8012 57.4111 56.219 57.7215 56.219 58.1044C56.219 58.4873 56.8012 58.7977 57.5195 58.7977Z" fill="#3F3D56"/>
<path d="M87.4978 76.2194C87.4978 76.2194 88.384 76.9281 87.4978 77.2593C86.6115 77.5906 87.5845 78.3917 87.5845 78.3917C87.5845 78.3917 85.3737 79.0824 86.3466 79.7038C87.3196 80.3252 86.7031 83.1316 86.7031 83.1316L84.0443 85.4785C84.0443 85.4785 84.2033 86.9909 84.2129 89.0347C84.2129 92.2238 83.8613 96.707 81.9154 98.7509L82.1851 115.52C82.1851 115.52 72.8747 117.333 65.0815 116.781L63.9255 89.8718C63.9255 89.8718 65.6113 74.6121 66.2327 71.6849C66.5963 70.1652 66.7444 68.6331 66.6758 67.1016C66.6758 67.1016 66.4109 62.5208 65.5198 60.3948C65.5198 60.3948 64.5565 51.1845 64.4602 48.6348C64.4168 47.4152 64.5372 43.8563 64.6721 40.4721C64.8214 36.7721 64.99 33.2826 64.99 33.2826L63.2319 25.8671C63.2319 25.8671 64.99 25.7721 65.5198 26.1496C65.7571 26.2678 66.0152 26.3735 66.2905 26.4654C69.3249 27.5593 80.0466 30.9229 80.0466 30.9229C80.0466 30.9229 85.9806 32.1811 87.4015 33.9836C88.8223 35.7861 89.8097 37.0648 90.4985 37.5784C91.1873 38.0919 91.563 40.5055 91.563 40.5055C91.563 40.5055 93.6052 44.9476 95.1995 45.6999C96.7938 46.4523 97.9594 51.2384 97.9594 51.2384L83.8709 57.1441C83.8709 57.1441 82.6331 66.9681 82.3682 67.3481C82.1032 67.7281 87.4978 76.2194 87.4978 76.2194Z" fill="white"/>
<path d="M88.0324 76.2194C88.0324 76.2194 88.9139 76.9281 88.0324 77.2593C87.151 77.5906 88.1143 78.3917 88.1143 78.3917C88.1143 78.3917 85.918 79.0901 86.8813 79.7115C87.8446 80.3329 87.2377 83.1393 87.2377 83.1393L84.5789 85.4862C84.5789 85.4862 84.7379 86.9986 84.7523 89.0425C84.7523 92.2315 84.4007 96.7147 82.4548 98.7586L82.7197 115.528C82.7197 115.528 73.3949 117.341 65.6113 116.789L64.4602 89.8795C64.4602 89.8795 66.146 74.6198 66.7673 71.6926C67.1313 70.173 67.2778 68.6408 67.2056 67.1093C67.2056 67.1093 66.9407 62.5285 66.0544 60.4025C66.0544 60.4025 65.0911 51.1922 64.99 48.6425C64.9466 47.4229 65.0719 43.864 65.2019 40.4798C65.3512 36.7798 65.5198 33.2903 65.5198 33.2903L63.1982 25.7747C63.1982 25.7747 65.5198 25.7747 66.0544 26.1573C66.2895 26.2769 66.5479 26.3827 66.8251 26.4731C69.8595 27.5669 80.586 30.9306 80.586 30.9306C80.586 30.9306 86.5152 32.1888 87.9361 33.9913C89.357 35.7938 90.3444 37.0725 91.038 37.5861C91.7315 38.0996 92.0976 40.5132 92.0976 40.5132C92.0976 40.5132 94.1398 44.9553 95.7341 45.7076C97.3284 46.46 98.4795 51.2359 98.4795 51.2359L84.3911 57.1415C84.3911 57.1415 83.1532 66.9655 82.8835 67.3455C82.6138 67.7255 88.0324 76.2194 88.0324 76.2194Z" fill="white"/>
<path opacity="0.1" d="M71.1601 35.4703L72.4317 37.4474L65.7367 41.0422C65.886 37.3447 66.0546 33.8526 66.0546 33.8526L63.733 26.337C63.733 26.337 66.0546 26.337 66.5892 26.7196C66.8236 26.8389 67.0821 26.9439 67.3598 27.0329L73.053 35.7887L71.1601 35.4703Z" fill="black"/>
<path d="M70.6254 34.9028L71.9017 36.8799L65.2067 40.4747C65.356 36.7747 65.5246 33.2852 65.5246 33.2852L63.1982 25.7696C63.1982 25.7696 65.5246 25.7696 66.0544 26.1522C66.2907 26.271 66.5489 26.3768 66.8251 26.468L72.5231 35.2212L70.6254 34.9028Z" fill="white"/>
<path opacity="0.1" d="M70.6254 15.3396C70.6293 16.2649 70.3561 17.1846 69.8162 18.0639C69.7252 18.0715 69.6323 18.0693 69.543 18.0574C69.4536 18.0455 69.3696 18.0241 69.296 17.9946C69.1708 15.6837 67.0371 13.514 64.412 11.6678C63.6751 11.1104 62.7816 10.6168 61.7629 10.2043C60.7331 9.79193 59.4522 9.59879 58.1698 9.66248C56.7248 9.76775 55.4484 10.2916 53.989 10.3583C52.0624 10.4431 50.338 9.73181 48.4259 9.69586C47.6485 9.6998 46.8817 9.79207 46.1765 9.96653C45.4714 10.141 44.8441 10.3936 44.3366 10.7075C43.332 11.341 42.5857 12.0791 42.1451 12.8747C41.3877 14.0811 40.9753 15.3414 40.9216 16.6132C40.8976 17.3322 40.7675 18.2334 39.5152 18.4953C39.6095 17.9666 39.4968 17.4332 39.1842 16.9288C38.8716 16.4245 38.366 15.9603 37.6994 15.5656L37.6705 15.5502C37.6705 15.4783 37.6705 15.4115 37.6705 15.3396C37.6331 14.1733 38.0317 13.0146 38.8431 11.9313C39.6545 10.8479 40.8624 9.86156 42.3964 9.02969C43.9304 8.19782 45.7598 7.53711 47.7778 7.0861C49.7959 6.63509 51.9622 6.40282 54.1504 6.40282C56.3386 6.40282 58.5048 6.63509 60.5229 7.0861C62.5409 7.53711 64.3703 8.19782 65.9043 9.02969C67.4383 9.86156 68.6462 10.8479 69.4576 11.9313C70.269 13.0146 70.6676 14.1733 70.6302 15.3396H70.6254Z" fill="black"/>
<path d="M60.973 1.3894C58.4701 0.761766 55.6234 0.643062 52.9678 1.0556C51.6336 1.26615 50.3765 1.60765 49.0231 1.77969C46.1331 2.152 42.7615 1.74888 40.281 2.65013C38.9035 3.16367 38.075 3.97506 37.3044 4.76334L35.3777 6.71992C34.3277 7.79064 33.2681 8.87933 32.8298 10.0579C32.3915 11.2365 32.6564 12.5563 34.058 13.5037C35.0791 14.1944 36.5867 14.6284 37.6945 15.278C38.3582 15.6731 38.8616 16.1371 39.1732 16.6408C39.4849 17.1445 39.598 17.6771 39.5055 18.2052C40.7627 17.9484 40.8831 17.0446 40.912 16.3256C40.9656 15.0538 41.3781 13.7935 42.1354 12.5871C42.575 11.7913 43.3214 11.0531 44.3269 10.4199C44.8348 10.1063 45.4621 9.85383 46.1672 9.6794C46.8723 9.50497 47.6389 9.41255 48.4162 9.40828C50.3428 9.44423 52.072 10.1529 53.9793 10.0682C55.4243 10.004 56.7055 9.47761 58.1601 9.3749C59.4427 9.31021 60.7243 9.50345 61.7532 9.91668C62.7716 10.3286 63.6636 10.8223 64.3975 11.3803C67.0274 13.2264 69.1611 15.391 69.2864 17.707C69.8306 17.9202 70.6157 17.6428 70.8855 17.3142C71.1552 16.9855 71.1648 16.6004 71.5068 16.2871C71.9017 15.9251 72.658 15.7325 73.2504 15.4603C74.7532 14.7696 75.1289 13.6064 75.0711 12.5511C75.0133 11.4958 74.6279 10.4251 75.0036 9.38774C75.23 8.75095 75.7406 8.15525 76.0199 7.52617C76.2993 6.89709 76.333 6.19097 75.6731 5.64919C74.7098 4.85321 72.682 4.69658 70.9144 4.62212C68.9058 4.52968 67.1093 4.64779 65.8281 3.74654C65.2267 3.27623 64.5498 2.83464 63.8051 2.42675C63.5498 2.29323 60.973 1.44589 60.973 1.3894Z" fill="#512E4E"/>
<path opacity="0.1" d="M8.62163 55.5368L3.58833 50.576L1.99405 58.2303C1.99405 58.2303 2.8803 61.6299 2.70208 62.1511C2.52387 62.6723 6.33376 67.3455 6.33376 67.3455C6.33376 67.3455 18.9195 79.2955 24.0587 79.9118L41.4224 73.2974L36.8178 70.1803C36.8178 70.1803 35.2235 69.849 34.8238 70.1803C34.8238 70.1803 26.2743 62.3386 25.3881 61.7711C24.5018 61.2036 24.6753 60.0713 24.6753 60.0713C24.6753 60.0713 23.3459 59.3164 23.789 58.6077C24.2321 57.899 21.2218 55.4417 21.2218 55.4417L23.9672 54.0732L8.62163 55.5368Z" fill="black"/>
<path d="M3.85335 50.0111L2.52397 50.576L0.929688 58.2302C0.929688 58.2302 1.81594 61.6299 1.63772 62.1511C1.45951 62.6723 5.27424 67.3455 5.27424 67.3455C5.27424 67.3455 17.8551 79.2955 22.9944 79.9118L40.3629 73.2974L35.7535 70.1802C35.7535 70.1802 34.1592 69.849 33.7594 70.1802C33.7594 70.1802 25.21 62.3385 24.3237 61.7711C23.4375 61.2036 23.6157 60.0713 23.6157 60.0713C23.6157 60.0713 22.2863 59.3164 22.7295 58.6077C23.1726 57.899 20.1574 55.4417 20.1574 55.4417L22.9029 54.0732L3.85335 50.0111Z" fill="white"/>
<path d="M93.4965 70.7525C94.0232 71.156 93.6914 72.9697 93.6914 72.9697L92.2378 74.4877C92.2378 74.4877 92.3247 75.4659 92.3326 76.7879L89.844 77.2779C89.6277 77.3203 89.3985 77.3295 89.1754 77.3047C88.9524 77.2799 88.7419 77.2219 88.5616 77.1355C88.3812 77.049 88.2363 76.9367 88.1387 76.8078C88.0411 76.6788 87.9938 76.5371 88.0007 76.3943L88.4246 67.7962L94.1285 69.1713C93.6414 69.3839 94.1733 69.9038 94.1733 69.9038C94.1733 69.9038 92.9699 70.3505 93.4965 70.7525Z" fill="white"/>
<path d="M95.3848 66.6668C95.3848 66.6668 94.9976 68.2263 94.0286 68.3177C93.0595 68.409 92.625 70.8405 91.6585 70.7541C90.6921 70.6677 91.332 68.4937 91.3662 68.0719C91.4004 67.65 90.3129 65.9028 91.1266 65.5059C91.9403 65.1089 94.5157 65.5059 94.5157 65.5059L95.3848 66.6668Z" fill="#CF6F80"/>
<path d="M98.2367 52L99.8325 52.3322C99.8325 52.3322 100.562 54.1043 100.562 55.0509C100.562 55.9976 101.578 56.0906 101.578 56.0906C101.578 56.0906 102.692 56.921 102.105 57.5256C101.518 58.1301 101.284 59.6348 101.284 59.6348C101.284 59.6348 101.476 62.5064 100.604 62.9034C99.7324 63.3003 99.5376 64.2486 99.5376 64.2486C99.5376 64.2486 97.9391 66.0506 97.9891 66.4791C98.0392 66.9076 95.7586 69.8091 95.7586 69.8091C95.7586 69.8091 96.8752 66.2034 90.3813 64.6456C90.3813 64.6456 90.3339 63.4215 90.8184 63.0861C91.303 62.7506 92.0587 62.5978 91.5847 60.9021C91.1107 59.2064 91.4478 57.1801 91.4478 56.7732C91.4478 56.3663 92.9014 53.8286 92.9014 53.8286L98.2367 52Z" fill="white"/>
<defs>
<linearGradient id="paint0_linear_0_84" x1="51.9948" y1="158" x2="51.9948" y2="0.000282526" gradientUnits="userSpaceOnUse">
<stop stop-color="#808080" stop-opacity="0.25"/>
<stop offset="0.54" stop-color="#808080" stop-opacity="0.12"/>
<stop offset="1" stop-color="#808080" stop-opacity="0.1"/>
</linearGradient>
</defs>
</svg>
