<svg width="46" height="41" viewBox="0 0 46 41" fill="none" xmlns="http://www.w3.org/2000/svg">
<path d="M23 40C35.1503 40 45 31.2696 45 20.5C45 9.73045 35.1503 1 23 1C10.8497 1 1 9.73045 1 20.5C1 31.2696 10.8497 40 23 40Z" stroke="black" stroke-width="2" stroke-linecap="round"/>
<path d="M14.9131 28.8324C15.8327 28.6569 17.0603 28.5243 18.4419 28.4365C19.8389 28.3468 21.4119 28.3 23.0003 28.3C24.5909 28.3 26.1617 28.3468 27.5587 28.4365C28.9403 28.5243 30.1679 28.655 31.0875 28.8324" stroke="black" stroke-width="2" stroke-linecap="round"/>
<path d="M17.5001 16.6C18.0281 16.6 18.2921 16.6 18.4527 16.8398C18.6133 17.0777 18.5187 17.2298 18.3317 17.534C18.1424 17.8417 17.8632 18.0984 17.5233 18.2773C17.1834 18.4562 16.7954 18.5506 16.4001 18.5506C16.0048 18.5506 15.6167 18.4562 15.2768 18.2773C14.9369 18.0984 14.6577 17.8417 14.4685 17.534C14.2815 17.2298 14.1869 17.0777 14.3475 16.8398C14.5081 16.6 14.7721 16.6 15.3001 16.6H17.5001Z" fill="black"/>
<mask id="mask0_0_555" style="mask-type:luminance" maskUnits="userSpaceOnUse" x="12" y="14" width="9" height="7">
<path d="M12 14.65H20.8V20.5H12V14.65Z" fill="white"/>
<path d="M17.5001 16.6C18.0281 16.6 18.2921 16.6 18.4527 16.8398C18.6133 17.0777 18.5187 17.2298 18.3317 17.534C18.1424 17.8417 17.8632 18.0984 17.5233 18.2773C17.1834 18.4562 16.7954 18.5506 16.4001 18.5506C16.0048 18.5506 15.6167 18.4562 15.2768 18.2773C14.9369 18.0984 14.6577 17.8417 14.4685 17.534C14.2815 17.2298 14.1869 17.0777 14.3475 16.8398C14.5081 16.6 14.7721 16.6 15.3001 16.6H17.5001Z" fill="black"/>
</mask>
<g mask="url(#mask0_0_555)">
<path d="M17.5001 16.6C18.0281 16.6 18.2921 16.6 18.4527 16.8398C18.6133 17.0777 18.5187 17.2298 18.3317 17.534C18.1424 17.8417 17.8632 18.0984 17.5233 18.2773C17.1834 18.4562 16.7954 18.5506 16.4001 18.5506C16.0048 18.5506 15.6167 18.4562 15.2768 18.2773C14.9369 18.0984 14.6577 17.8417 14.4685 17.534C14.2815 17.2298 14.1869 17.0777 14.3475 16.8398C14.5081 16.6 14.7721 16.6 15.3001 16.6H17.5001Z" stroke="black" stroke-linecap="round"/>
</g>
<path d="M30.6998 16.6C31.2278 16.6 31.4918 16.6 31.6524 16.8398C31.813 17.0777 31.7184 17.2298 31.5314 17.534C31.3421 17.8417 31.0629 18.0984 30.723 18.2773C30.3831 18.4562 29.9951 18.5506 29.5998 18.5506C29.2045 18.5506 28.8164 18.4562 28.4765 18.2773C28.1366 18.0984 27.8574 17.8417 27.6682 17.534C27.4812 17.2298 27.3866 17.0777 27.5472 16.8398C27.7078 16.6 27.9718 16.6 28.4998 16.6H30.6998Z" fill="black"/>
<mask id="mask1_0_555" style="mask-type:luminance" maskUnits="userSpaceOnUse" x="25" y="14" width="9" height="7">
<path d="M25.2002 14.65H34.0002V20.5H25.2002V14.65Z" fill="white"/>
<path d="M30.6998 16.6C31.2278 16.6 31.4918 16.6 31.6524 16.8398C31.813 17.0777 31.7184 17.2298 31.5314 17.534C31.3421 17.8417 31.0629 18.0984 30.723 18.2773C30.3831 18.4562 29.9951 18.5506 29.5998 18.5506C29.2045 18.5506 28.8164 18.4562 28.4765 18.2773C28.1366 18.0984 27.8574 17.8417 27.6682 17.534C27.4812 17.2298 27.3866 17.0777 27.5472 16.8398C27.7078 16.6 27.9718 16.6 28.4998 16.6H30.6998Z" fill="black"/>
</mask>
<g mask="url(#mask1_0_555)">
<path d="M30.6998 16.6C31.2278 16.6 31.4918 16.6 31.6524 16.8398C31.813 17.0777 31.7184 17.2298 31.5314 17.534C31.3421 17.8417 31.0629 18.0984 30.723 18.2773C30.3831 18.4562 29.9951 18.5506 29.5998 18.5506C29.2045 18.5506 28.8164 18.4562 28.4765 18.2773C28.1366 18.0984 27.8574 17.8417 27.6682 17.534C27.4812 17.2298 27.3866 17.0777 27.5472 16.8398C27.7078 16.6 27.9718 16.6 28.4998 16.6H30.6998Z" stroke="black" stroke-linecap="round"/>
</g>
</svg>
