<svg width="192" height="165" viewBox="0 0 192 165" fill="none" xmlns="http://www.w3.org/2000/svg">
<path d="M166.187 44.7096C166.187 44.7096 159.616 55.0422 161.962 57.8399C164.309 60.6376 144.357 60.7074 144.357 60.7074C144.357 60.7074 147.354 45.6766 146.472 42.2173L166.187 44.7096Z" fill="#9F616A"/>
<path d="M155.685 48.4549C144.306 48.4549 135.081 39.3087 135.081 28.0262C135.081 16.7438 144.306 7.59759 155.685 7.59759C167.064 7.59759 176.289 16.7438 176.289 28.0262C176.289 39.3087 167.064 48.4549 155.685 48.4549Z" fill="#090814"/>
<path d="M107.226 138.753V150.863L95.0121 148.34L96.0293 139.762L107.226 138.753Z" fill="#9F616A"/>
<path d="M63.2939 141.866L29.6528 149.772L39.1793 161.761C39.1793 161.761 62.4809 152.044 68.5762 151.62C74.6714 151.196 63.2939 141.866 63.2939 141.866Z" fill="#9F616A"/>
<path d="M141.323 116.551C141.323 116.551 115.877 87.284 107.734 88.7977C99.5914 90.3115 96.0288 99.3942 96.0288 99.3942L91.4486 144.304C91.4486 144.304 107.734 145.817 107.734 144.304C107.734 142.79 110.788 110.495 110.788 110.495C110.788 110.495 134.708 162.972 147.43 128.157L141.323 116.551Z" fill="#E6E6E6"/>
<path d="M182.547 136.231C182.547 136.231 182.037 162.665 166.771 164.181C151.504 165.697 134.709 152.883 134.709 152.883L107.227 139.829C107.227 139.829 74.6553 156.919 64.9858 152.378C64.9858 152.378 54.8071 141.782 61.4232 138.754C68.0393 135.726 61.9323 138.754 61.9323 138.754L101.12 118.569C101.12 118.569 108.753 116.551 121.986 122.102C135.218 127.653 153.03 130.175 153.03 130.175L182.547 136.231Z" fill="#E6E6E6"/>
<path d="M157.101 49.9443C148.668 49.9443 141.833 43.1668 141.833 34.8062C141.833 26.4456 148.668 19.668 157.101 19.668C165.533 19.668 172.369 26.4456 172.369 34.8062C172.369 43.1668 165.533 49.9443 157.101 49.9443Z" fill="#9F616A"/>
<path d="M135.217 77.1919L136.235 98.3852C136.235 98.3852 135.726 126.138 140.306 128.157C142.622 129.176 147.274 131.225 151.574 133.465C154.801 135.14 157.829 136.916 159.519 138.446C159.967 138.823 160.353 139.268 160.664 139.763C162.7 143.295 175.932 142.79 178.985 140.267C182.038 137.745 180.002 143.295 182.547 144.304C185.011 145.283 188.425 137.281 186.334 125.331C186.268 124.933 186.191 124.529 186.111 124.12C183.775 112.54 187.444 84.8019 186.879 74.0839C186.846 73.2651 186.76 72.4492 186.62 71.6415C185.093 63.5679 165.611 47.1383 161.969 54.137C157.48 62.7759 147.169 54.884 145.398 50.9548C135.22 50.45 131.657 62.5607 131.657 62.5607L135.217 77.1919Z" fill="#6C63FF"/>
<path d="M93.9944 146.323C93.9944 146.323 102.137 149.35 104.682 148.845C107.226 148.341 109.771 150.359 109.771 153.387C109.771 156.414 112.825 163.479 108.244 163.983C103.664 164.487 84.8335 163.478 80.7623 164.992C80.7623 164.992 62.4413 165.497 63.9676 157.928C65.4939 150.358 73.1281 150.863 73.1281 150.863C73.1281 150.863 93.9944 149.855 93.9944 146.323Z" fill="#090814"/>
<path d="M34.4492 149.862C34.4492 149.862 33.4315 146.834 31.9048 146.834C30.378 146.834 18.1636 148.853 16.6368 148.348C15.1101 147.843 -2.70233 146.834 0.351173 155.413C3.40467 163.991 13.5833 165 13.5833 165C13.5833 165 31.9043 162.981 34.4492 163.486C36.9941 163.991 46.1546 163.486 44.6278 160.963C43.1011 158.441 33.4315 153.898 34.4492 149.862Z" fill="#090814"/>
<path d="M80.7747 75.3572L77.9828 86.7766C77.9517 86.9039 77.9565 87.0373 77.9967 87.162L90.6622 126.405C90.7126 126.56 90.815 126.693 90.9525 126.783C91.09 126.872 91.2542 126.912 91.4179 126.896C91.5815 126.88 91.7347 126.809 91.8519 126.695C91.969 126.58 92.0432 126.43 92.0619 126.268L93.8142 110.98C93.8259 110.879 93.8154 110.776 93.7835 110.679L82.1579 75.3042C82.109 75.1572 82.0131 75.0299 81.8849 74.9417C81.7566 74.8534 81.6028 74.8089 81.4468 74.8149C81.2908 74.8209 81.141 74.877 81.02 74.9748C80.899 75.0727 80.8133 75.2069 80.776 75.3572H80.7747Z" fill="#090814"/>
<path d="M81.8017 76.3212L79.2239 86.119L90.3948 121.902L92.9727 110.826L81.8017 76.3212Z" fill="white"/>
<path d="M138.085 129.571C137.655 130.848 93.4026 129.145 92.9733 128.719C92.5988 128.185 92.282 127.614 92.0283 127.015C91.6244 126.163 91.2549 125.311 91.2549 125.311L92.9733 111.518L136.796 109.976C136.796 109.976 137.892 121.665 138.115 127.015C138.191 127.866 138.181 128.722 138.085 129.571Z" fill="#090814"/>
<path opacity="0.1" d="M98.5579 113.382L97.6984 125.31H117.032V113.382H98.5579Z" fill="#D6D6E3"/>
<path opacity="0.1" d="M123.477 117.216L123.361 117.193L123.907 122.328H134.65V117.216H123.477Z" fill="black"/>
<path opacity="0.1" d="M138.085 129.568C137.655 130.846 93.4026 129.142 92.9733 128.716C92.5988 128.183 92.282 127.611 92.0283 127.012H138.115C138.191 127.863 138.181 128.719 138.085 129.568Z" fill="black"/>
<path d="M152.272 11.3862C149.101 11.3862 146.53 8.83734 146.53 5.69312C146.53 2.5489 149.101 0 152.272 0C155.443 0 158.014 2.5489 158.014 5.69312C158.014 8.83734 155.443 11.3862 152.272 11.3862Z" fill="#090814"/>
<path d="M153.999 11.8906C153.999 11.8906 159.866 21.5659 173.507 25.1875C187.149 28.809 173.619 49.1347 173.619 49.1347C173.619 49.1347 178.539 41.7435 171.442 33.9161C164.345 26.0887 152.925 20.7376 153.999 11.8906Z" fill="#090814"/>
<path opacity="0.1" d="M151.574 133.466C152.831 135.822 154.307 138.27 154.556 139.259C154.725 139.93 156.587 139.541 159.518 138.447C165.396 136.241 175.585 131.191 185.092 126.139C185.53 125.909 185.946 125.638 186.334 125.332C186.268 124.934 186.191 124.53 186.111 124.121C183.775 112.541 187.444 84.8023 186.879 74.0844L182.548 72.6515L173.897 80.7251V115.038C173.897 115.038 151.504 127.148 149.977 128.158C149.198 128.672 150.271 131.019 151.574 133.466Z" fill="black"/>
<path d="M132.672 105.954L118.931 113.019C118.931 113.019 110.788 104.441 105.699 111C100.61 117.56 120.458 119.579 120.458 119.579C120.458 119.579 137.761 115.542 138.27 109.991C138.779 104.441 132.672 105.954 132.672 105.954Z" fill="#9F616A"/>
<path d="M155.574 124.625L147.431 126.643C147.431 126.643 138.271 115.542 128.601 119.579C118.932 123.615 140.815 131.689 140.815 131.689C140.815 131.689 152.521 137.744 157.101 132.698C161.681 127.652 155.574 124.625 155.574 124.625Z" fill="#9F616A"/>
<path d="M137.762 58.0176C137.253 58.5223 131.655 62.5589 131.655 62.5589C131.655 62.5589 130.128 81.7337 132.164 85.7707C134.2 89.8077 135.726 89.8077 134.2 91.8258C132.673 93.8439 130.637 92.3306 132.673 95.8629C134.709 99.3951 136.745 98.8904 135.217 100.404C133.69 101.918 134.2 102.423 134.2 102.423L128.093 107.469C128.093 107.469 131.839 113.386 136.582 112.949C141.325 112.513 145.396 89.8069 145.396 89.8069L137.762 58.0176Z" fill="#6C63FF"/>
<path d="M182.547 70.1277L187.128 71.6402C187.128 71.6402 199.342 116.045 185.092 123.614C170.842 131.183 155.065 138.752 154.557 136.734C154.049 134.715 148.45 126.642 149.977 125.633C151.504 124.624 173.896 112.513 173.896 112.513V78.2014L182.547 70.1277Z" fill="#6C63FF"/>
<path opacity="0.1" d="M175.677 88.5454L176.694 112.766L149.721 125.381L174.659 112.766L175.677 88.5454Z" fill="black"/>
</svg>
