<svg width="46" height="92" viewBox="0 0 46 92" fill="none" xmlns="http://www.w3.org/2000/svg">
<path d="M8.12869 89.1519L5.89075 88.344L7.93485 79.3068L11.238 80.4992L8.12869 89.1519Z" fill="#FFB6B6"/>
<path d="M8.39031 88.4199L6.06394 87.5797L4.55434 87.0351C4.18551 86.9019 3.79411 86.8428 3.4025 86.8612C3.01088 86.8796 2.62672 86.9751 2.27195 87.1424C1.91718 87.3096 1.59876 87.5453 1.33485 87.8359C1.07095 88.1265 0.866745 88.4664 0.733898 88.8361L0.700928 88.9275L7.91888 91.5317L8.96274 88.626L8.39031 88.4199Z" fill="#2F2E41"/>
<path d="M43.7625 85.9579L41.7104 87.1637L36.0933 79.8037L39.1221 78.024L43.7625 85.9579Z" fill="#FFB6B6"/>
<path d="M43.894 84.9794L43.3702 85.2867L41.2359 86.5411L39.8524 87.3541C39.514 87.5526 39.218 87.816 38.9814 88.1292C38.7447 88.4425 38.5719 88.7994 38.473 89.1797C38.3741 89.5599 38.3509 89.956 38.4048 90.3452C38.4587 90.7344 38.5887 91.1092 38.7872 91.448L38.8357 91.5316L45.4521 87.6438L43.894 84.9794Z" fill="#2F2E41"/>
<path d="M21.7859 12.5821C24.4151 12.5821 26.5465 10.4457 26.5465 7.81034C26.5465 5.17497 24.4151 3.03857 21.7859 3.03857C19.1568 3.03857 17.0254 5.17497 17.0254 7.81034C17.0254 10.4457 19.1568 12.5821 21.7859 12.5821Z" fill="#FFB6B6"/>
<path d="M23.627 14.2974L22.6297 14.5768L19.1299 17.0841L15.3421 21.5552C15.3421 21.5552 13.982 24.1115 14.492 27.0086C15.0021 29.9058 16.1202 35.9407 16.1202 35.9407C16.1202 35.9407 25.3869 35.8771 25.7269 35.3659C26.0669 34.8546 26.1773 32.5323 26.1773 32.5323L27.5375 17.3649C27.5375 17.3649 26.0073 14.8086 25.1572 14.8086C24.6085 14.7901 24.077 14.6125 23.627 14.2974Z" fill="#6C63FF"/>
<path d="M25.921 35.1713C25.921 35.1713 24.1371 35.259 22.947 35.5998C21.7568 35.9407 15.7802 35.5998 15.7802 35.5998L12.5758 48.3814L6.32397 84.3765L11.1747 85.3489L19.712 59.2877L23.9807 67.4561L37.3688 82.2371L41.0553 79.9033L29.9956 62.3995L27.5375 49.063C27.5375 49.063 29.7478 41.5646 26.6874 36.9632L25.921 35.1713Z" fill="#2F2E41"/>
<path opacity="0.2" d="M22.542 23.0371L20.8419 35.6482L19.0586 35.7414L22.542 23.0371Z" fill="black"/>
<path d="M15.6374 37.1162C16.1732 37.1162 16.6075 36.5937 16.6075 35.9493C16.6075 35.3048 16.1732 34.7823 15.6374 34.7823C15.1016 34.7823 14.6672 35.3048 14.6672 35.9493C14.6672 36.5937 15.1016 37.1162 15.6374 37.1162Z" fill="#2F2E41"/>
<path d="M20.4837 52.0485C20.6859 51.8469 20.8415 51.6032 20.9396 51.3347C21.0377 51.0663 21.0759 50.7795 21.0515 50.4946C21.0271 50.2098 20.9406 49.9338 20.7983 49.686C20.6559 49.4382 20.4611 49.2248 20.2275 49.0607L22.1263 42.3764L18.6902 43.463L17.4138 49.6439C17.1648 50.0555 17.075 50.5443 17.1615 51.0178C17.248 51.4913 17.5048 51.9165 17.8832 52.213C18.2616 52.5094 18.7353 52.6563 19.2146 52.626C19.6939 52.5957 20.1454 52.3902 20.4837 52.0485Z" fill="#FFB6B6"/>
<path d="M24.3029 15.2239C24.3029 15.2239 26.5926 14.2304 27.9827 16.7316C29.3728 19.2328 27.3667 27.9259 27.0852 29.3368C26.8037 30.7476 20.6822 48.591 20.6822 48.591L17.3837 47.424L24.3029 15.2239Z" fill="#6C63FF"/>
<path d="M27.678 0C27.8801 0.304796 27.9931 0.66017 28.0043 1.02598C28.0156 1.39178 27.9245 1.75344 27.7414 2.07011C27.5413 1.71249 27.2204 1.43821 26.8365 1.29663C26.4526 1.15505 26.0309 1.15547 25.6473 1.2978C25.2637 1.44014 24.9433 1.71505 24.7439 2.07305C24.5445 2.43106 24.4791 2.84865 24.5596 3.25068C22.2473 2.23684 21.1177 1.70869 18.7134 2.47777C18.167 2.63621 17.6503 2.88333 17.1838 3.20932C16.6845 3.58944 16.2954 4.0962 16.0567 4.67732C15.818 5.25844 15.7382 5.89289 15.8258 6.51519C17.2876 6.40234 17.1972 6.67845 18.6591 6.56558L18.5917 6.40973C19.177 7.48371 19.4401 8.70436 19.3493 9.92472C19.2585 11.1451 18.8177 12.3131 18.08 13.2882C17.865 13.5275 17.6812 13.7932 17.5331 14.0789C17.4606 14.2229 17.4273 14.3836 17.4366 14.5446C17.4459 14.7057 17.4974 14.8615 17.5859 14.9962C17.7286 15.1546 17.9141 15.2681 18.1198 15.3231C18.5691 15.4749 19.0443 15.5338 19.517 15.4964C19.9896 15.459 20.4497 15.3259 20.8695 15.1052C21.2894 14.8846 21.6603 14.5809 21.9598 14.2126C22.2594 13.8443 22.4813 13.4189 22.6123 12.9622C22.5783 13.7225 22.6166 14.6304 23.2594 15.0356C23.6288 15.2684 24.0954 15.2567 24.5314 15.2372C25.6775 15.1861 26.8237 15.135 27.97 15.0839C27.538 14.8325 27.3715 14.2718 27.4227 13.7736C27.4739 13.2755 27.6979 12.8149 27.8809 12.3489C28.8975 9.76095 28.1271 7.02053 26.6971 4.63691C27.7879 4.68521 29.3525 3.46742 29.4695 2.37933C29.5101 1.83229 29.3507 1.28911 29.0211 0.851257C28.6914 0.413401 28.214 0.110811 27.678 0Z" fill="#2F2E41"/>
</svg>
