<svg width="104" height="158" viewBox="0 0 104 158" fill="none" xmlns="http://www.w3.org/2000/svg">
<path d="M46.6304 132.41C44.47 136.274 45.0809 141.49 45.5659 144.024C45.7456 144.96 45.9118 145.53 45.9118 145.53C45.9118 145.53 42.6824 150.151 42.413 150.326C42.1435 150.501 32.909 154.041 32.909 154.041L26.4548 156.408C26.4548 156.408 19.9062 154.605 23.0458 153.984C23.6872 153.823 24.265 153.575 24.739 153.259C27.883 151.384 31.8311 146.72 31.8311 146.72C31.8311 146.72 32.1005 144.354 33.0887 143.228C34.0768 142.103 33.7175 130.274 33.7175 130.274L33.7938 110.993V108.479L46.078 108.536C46.1555 109.389 46.3326 110.238 46.608 111.075C47.0489 112.519 47.6202 113.947 48.3192 115.351C50.4841 119.749 49.5858 127.115 46.6304 132.41Z" fill="#FFB0B1"/>
<path opacity="0.1" d="M45.9118 145.53C45.9118 145.53 42.6824 150.151 42.413 150.326C42.1435 150.501 32.909 154.041 32.909 154.041L26.4548 156.408C26.4548 156.408 19.9062 154.605 23.0458 153.984C23.6872 153.823 24.265 153.575 24.739 153.259L25.0175 154.492L27.1689 154.436L45.5839 144.029C45.7456 144.96 45.9118 145.53 45.9118 145.53Z" fill="black"/>
<path d="M45.6872 144.292L27.1689 154.769L25.0174 154.825L24.5683 152.85C24.5683 152.85 20.8044 155.891 12.4413 155.722C12.4413 155.722 7.41988 157.807 14.8622 157.92C22.3046 158.033 31.8085 157.75 31.8085 157.75C31.8085 157.75 38.4469 151.262 44.0029 152.109V157.009H45.7096V152.063C46.5032 151.728 47.1805 151.295 47.7007 150.791C48.2209 150.287 48.5734 149.722 48.7369 149.13C48.8847 148.52 48.7801 147.896 48.4332 147.319C48.0863 146.742 47.5087 146.231 46.7562 145.835C46.42 145.637 46.1518 145.398 45.968 145.132C45.7842 144.867 45.6886 144.581 45.6872 144.292Z" fill="#1D2366"/>
<path d="M89.2229 138.435C88.0282 141.115 88.6795 142.624 89.4969 143.434V143.451C90.5454 144.451 91.2745 145.569 91.6438 146.743L91.7157 146.997L83.2897 154.712L78.7174 155.841C78.7174 155.841 71.3649 154.264 72.7078 153.812C73.0447 153.702 73.5702 153.116 74.172 152.306C75.9686 149.866 78.4479 145.364 78.4479 145.364V145.327C78.7084 143.468 79.1216 141.615 79.5798 139.77C80.4017 136.449 78.8925 128.3 78.8925 128.3C78.8925 128.3 78.3536 118.39 77.1858 116.136C76.6586 114.99 76.3081 113.814 76.1393 112.626C75.8967 111.216 75.8429 110.054 75.8429 110.054C75.8429 110.054 80.6847 105.822 89.5598 110.392C90.2695 110.757 90.894 111.182 91.4148 111.656C97.5456 117.134 92.6095 129.202 92.6095 129.202C92.6095 129.202 91.3743 133.592 89.2229 138.435Z" fill="#FFB0B1"/>
<path opacity="0.1" d="M91.7293 146.997L83.3033 154.712L78.731 155.841C78.731 155.841 71.3784 154.264 72.7214 153.812C73.0582 153.702 73.5837 153.116 74.1856 152.306C77.2982 152.289 78.9106 154.151 78.9106 154.151L82.8541 153.756C82.8541 153.756 88.0552 147.335 89.223 146.943C90.3908 146.551 89.4027 144.012 89.4027 144.012V143.366C89.4341 143.389 89.4611 143.414 89.497 143.437V143.454C90.5455 144.453 91.2746 145.572 91.6439 146.746L91.7293 146.997Z" fill="black"/>
<path d="M79.1801 154.317C79.1801 154.317 76.9344 151.728 72.6315 152.684C72.6315 152.684 70.2106 155.787 67.7897 156.289C65.3688 156.791 66.1773 158.484 71.6479 157.866C77.1185 157.248 85.3649 156.738 85.3649 156.738L85.7242 153.581L91.2846 149.132C91.2846 149.132 94.5993 147.245 89.6677 143.53V144.176C89.6677 144.176 90.6558 146.715 89.488 147.107C88.3202 147.499 83.1371 153.922 83.1371 153.922L79.1801 154.317Z" fill="#1D2366"/>
<path opacity="0.1" d="M46.0915 108.53C46.1689 109.384 46.3461 110.232 46.6215 111.069C41.5641 110.604 36.8705 110.835 33.7938 110.987V108.474L46.0915 108.53Z" fill="black"/>
<path opacity="0.1" d="M91.9134 112.358C91.9134 112.358 84.727 112.578 76.1573 112.623C75.9148 111.213 75.8608 110.051 75.8608 110.051C75.8608 110.051 80.7026 105.819 89.5778 110.389C90.2875 110.754 90.912 111.179 91.4327 111.653C91.5719 111.894 91.7324 112.129 91.9134 112.358Z" fill="black"/>
<path d="M91.9135 111.851C91.9135 111.851 60.4373 112.807 50.8435 111.117C41.2498 109.427 31.7413 110.891 30.3086 110.499C28.8758 110.107 30.0391 103.966 31.2967 102.445C32.5543 100.925 39.4532 85.5478 39.4532 85.5478L46.0916 63.8095L53.0848 62.5993L53.5789 62.5118L65.7642 60.4017L74.6932 58.853C74.6932 58.853 92.448 102.389 90.9254 105.599C90.3725 106.829 90.2833 108.122 90.6649 109.377C90.8975 110.233 91.3177 111.066 91.9135 111.851Z" fill="#1D2366"/>
<path d="M22.9514 48.9429C22.9514 48.9429 16.6633 53.1744 21.4243 55.5327C26.1853 57.891 29.3158 55.7584 29.3158 55.7584L22.9514 48.9429Z" fill="#C7DAF5"/>
<path opacity="0.1" d="M22.9514 48.9429C22.9514 48.9429 16.6633 53.1744 21.4243 55.5327C26.1853 57.891 29.3158 55.7584 29.3158 55.7584L22.9514 48.9429Z" fill="black"/>
<path d="M73.7546 21.1226C73.7546 21.1226 73.018 21.5626 71.9086 22.2115C70.3276 23.1396 67.9875 24.4965 65.9125 25.6333C63.0379 27.2046 60.6664 28.3584 61.5153 27.3738C62.3642 26.3893 62.2025 24.6742 61.7803 23.069C61.7489 22.9618 61.7219 22.8546 61.6905 22.7503C61.3409 21.5714 60.8774 20.407 60.3026 19.2636C60.3026 19.2636 64.9468 15.4948 67.5159 14.0081C68.4726 13.4439 69.1418 13.2126 69.1823 13.6047C69.2272 14.1322 69.856 15.2973 70.6375 16.5329C70.6599 16.5724 70.6824 16.609 70.7094 16.6485C71.2304 17.4948 71.8188 18.3637 72.3353 19.1141C73.1258 20.265 73.7546 21.1226 73.7546 21.1226Z" fill="#FFB0B1"/>
<path opacity="0.1" d="M70.7094 16.6485C70.2729 18.1229 69.214 19.4965 67.6433 20.626C66.0726 21.7554 64.0477 22.5992 61.7803 23.069C61.4232 21.7813 60.9295 20.51 60.3026 19.2636C60.3026 19.2636 69.0475 12.1688 69.1823 13.6047C69.2137 14.1491 69.8964 15.3565 70.7094 16.6485Z" fill="black"/>
<path opacity="0.1" d="M60.9089 24.9647L62.0408 23.9633C62.0408 23.9633 62.7909 26.835 65.5486 25.5684C68.3064 24.3018 68.4411 35.1005 68.4411 35.1005L65.4813 62.8954L44.0929 62.0915L44.6992 48.6608L47.1201 41.8905L53.1073 32.0482L56.669 28.7956L60.9089 24.9647Z" fill="black"/>
<path d="M68.441 35.2725L65.7461 60.4045L65.4632 63.0675L53.5383 62.619L53.0891 62.6021L44.1062 62.2635L44.7126 48.8301L47.1335 42.0598L53.1206 32.2174L56.6823 28.9649L60.9223 25.1199L62.0541 24.1213C62.0541 24.1213 62.8042 26.993 65.5619 25.7264L65.6203 25.701C68.3152 24.629 68.441 35.2725 68.441 35.2725Z" fill="#1D2366"/>
<path d="M47.4344 39.7071C47.4344 39.7071 46.3609 41.1176 44.205 40.8891C42.0491 40.6606 42.0536 45.9668 42.0536 45.9668C42.0536 45.9668 40.6208 46.8131 39.6327 46.0797C38.6446 45.3462 36.0395 47.8258 36.0395 47.8258L19.7175 48.2772C19.7175 48.2772 26.9802 50.3619 25.5564 56.6696C25.5564 56.6696 50.2146 55.7104 51.0231 54.2464C51.8315 52.7823 47.4344 39.7071 47.4344 39.7071Z" fill="white"/>
<path opacity="0.03" d="M47.4344 39.7071C47.4344 39.7071 46.3609 41.1176 44.205 40.8891C42.0491 40.6606 42.0536 45.9668 42.0536 45.9668C42.0536 45.9668 40.6208 46.8131 39.6327 46.0797C38.6446 45.3462 36.0395 47.8258 36.0395 47.8258L19.7175 48.2772C19.7175 48.2772 26.9802 50.3619 25.5564 56.6696C25.5564 56.6696 50.2146 55.7104 51.0231 54.2464C51.8315 52.7823 47.4344 39.7071 47.4344 39.7071Z" fill="black"/>
<path d="M0 51.5918L4.30283 53.8994L39.7225 58.5737L35.3299 55.7584L0 51.5918Z" fill="white"/>
<path d="M60.9762 25.8533C60.3879 26.4175 58.7036 29.3062 57.2977 31.8281C56.1255 33.9298 55.1463 35.7775 55.1463 35.7775C55.1463 35.7775 52.8602 45.1262 51.6924 46.8159C50.5246 48.5057 51.1579 55.0955 51.1579 55.0955L46.8057 71.3696C46.8057 71.3696 44.8339 79.762 41.7887 84.7749C38.7839 89.7087 35.4378 92.0219 35.3345 92.0953C36.6819 90.95 44.0255 68.3992 44.0255 68.3992L46.4509 39.9582C46.4509 39.9582 46.8057 37.2557 47.165 34.9453C47.5243 32.6349 54.8005 29.4811 54.8005 29.4811L61.8162 23.2157C62.5213 23.8081 62.0497 24.8406 60.9762 25.8533Z" fill="white"/>
<path d="M42.6824 62.4046C42.6824 62.4046 32.352 62.1225 27.3485 58.3481C22.345 54.5736 38.914 56.8417 38.914 56.8417L43.2213 57.4623L42.6824 62.4046Z" fill="#FFB0B1"/>
<path opacity="0.1" d="M90.9252 105.602C90.3722 106.831 90.2831 108.125 90.6647 109.379C79.3956 109.881 67.3405 107.969 67.3405 107.969C65.0948 109.266 59.1795 111.179 59.1795 111.179L55.9546 86.0725C53.893 82.6873 53.0846 64.9519 53.0846 64.9519C53.0846 64.9519 53.2687 64.0238 53.5337 62.6331C53.5337 62.5992 53.5337 62.5626 53.5562 62.5287C54.3602 58.6442 55.9546 51.352 56.7361 50.3675C57.8141 49.0135 53.4215 45.4111 53.4215 45.4111L55.4201 34.7055L55.6627 33.4135C59.8757 32.2315 63.1051 28.4571 63.1051 28.4571L65.5843 25.7292C68.2792 24.6431 68.4184 35.2866 68.4184 35.2866L65.7236 60.4186L74.6526 58.8699C74.6526 58.8699 92.4478 102.392 90.9252 105.602Z" fill="black"/>
<path d="M102.491 107.337C90.2067 111.168 67.8796 107.619 67.8796 107.619C65.6339 108.917 59.7186 110.829 59.7186 110.829L56.4892 85.7227C54.4321 82.3376 53.6237 64.6021 53.6237 64.6021C53.6237 64.6021 56.2197 51.369 57.2977 50.0177C57.6121 49.6228 57.4594 49.036 57.0866 48.4041C55.2538 45.3965 54.5797 42.1592 55.1193 38.9567L55.9817 34.3557L56.2197 33.0666C60.4372 31.8817 63.6666 28.1073 63.6666 28.1073L65.9123 25.6361L70.0445 21.0831L72.0028 18.9279L72.3351 19.1169L74.8728 20.5612C74.8728 20.5612 75.9507 21.1254 77.5677 21.9717C81.0845 23.8335 87.1614 27.1115 90.2965 29.1172C93.0542 30.8831 93.9256 37.7522 94.1771 42.923C94.3433 46.3279 94.2445 48.9966 94.2445 48.9966C91.4643 51.8711 98.736 74.9494 98.736 74.9494C100.429 79.4094 102.491 107.337 102.491 107.337Z" fill="white"/>
<path opacity="0.03" d="M78.9106 28.0509C78.9106 28.0509 70.4801 38.1302 71.4592 41.9611C72.4383 45.7919 75.2231 50.1278 73.8801 51.1405C73.4187 51.5242 72.8222 51.8356 72.1373 52.0504C71.4524 52.2653 70.6976 52.3777 69.9321 52.3789C68.5846 52.4353 64.9915 54.0122 64.9915 54.1815C64.9915 54.3507 61.6723 54.3507 58.7034 55.1406C55.7346 55.9305 51.3509 56.379 51.3509 56.379C51.3509 56.379 42.8171 56.2098 42.0221 56.7175C41.2271 57.2253 40.4097 60.2635 42.1119 62.6867C43.8142 65.1099 45.7051 66.9182 47.1334 67.2482C48.5617 67.5783 57.6255 65.6713 64.978 65.2199C72.3305 64.7686 80.3119 61.1098 80.3119 61.1098C80.3119 61.1098 89.1017 59.1351 90.6422 55.8148C92.1828 52.4945 88.7603 34.2457 88.7603 34.2457C88.7603 34.2457 86.1733 25.7405 78.9106 28.0509Z" fill="black"/>
<path opacity="0.03" d="M77.8326 27.2046C77.8326 27.2046 69.4021 37.2867 70.3902 41.1148C71.3783 44.9428 74.1541 49.2815 72.8066 50.297C72.3469 50.6811 71.7513 50.9929 71.067 51.2078C70.3827 51.4227 69.6282 51.5349 68.8631 51.5354C67.5157 51.5918 63.9225 53.1687 63.9225 53.338C63.9225 53.5073 60.6033 53.5073 57.6344 54.2943C54.6656 55.0814 50.2819 55.5327 50.2819 55.5327C50.2819 55.5327 41.7481 55.3635 40.9576 55.8712C40.1671 56.379 39.3407 59.42 41.0474 61.8404C42.7542 64.2608 44.6406 66.0718 46.0689 66.4019C47.4972 66.732 56.561 64.825 63.9135 64.3764C71.2661 63.9279 79.2474 60.2635 79.2474 60.2635C79.2474 60.2635 88.0327 58.2888 89.5553 54.9713C91.0779 51.6539 87.6734 33.3994 87.6734 33.3994C87.6734 33.3994 85.0953 24.897 77.8326 27.2046Z" fill="black"/>
<path d="M78.6457 27.5431C78.6457 27.5431 70.2152 37.6252 71.2033 41.4533C72.1914 45.2813 74.9672 49.62 73.6242 50.6327C73.1645 51.0177 72.5685 51.3303 71.8833 51.5457C71.1981 51.7611 70.4425 51.8735 69.6762 51.8739C68.3288 51.9304 64.7356 53.5073 64.7356 53.6737C64.7356 53.8401 61.4209 53.843 58.4476 54.6328C55.4742 55.4227 51.095 55.8712 51.095 55.8712C51.095 55.8712 42.5612 55.702 41.7663 56.2098C40.9713 56.7175 40.1538 59.7585 41.8561 62.1789C43.5584 64.5993 45.4493 66.4104 46.8775 66.7404C48.3058 67.0705 57.3696 65.1635 64.7221 64.7121C72.0747 64.2608 80.056 60.602 80.056 60.602C80.056 60.602 88.8458 58.6273 90.3864 55.307C91.927 51.9868 88.5269 33.7379 88.5269 33.7379C88.5269 33.7379 85.9039 25.2468 78.6457 27.5431Z" fill="white"/>
<path opacity="0.1" d="M78.4615 54.5849C78.4615 54.5849 71.7243 53.7386 74.0688 55.1491C76.4134 56.5596 76.3999 57.7951 79.27 57.7387C82.14 57.6823 78.4615 54.5849 78.4615 54.5849Z" fill="black"/>
<path opacity="0.1" d="M89.8474 84.9328C89.8474 84.9328 86.8022 86.2276 92.6277 89.2122C98.4531 92.1968 89.8474 84.9328 89.8474 84.9328Z" fill="black"/>
<path opacity="0.1" d="M84.0355 95.5763C84.0355 95.7456 82.9575 101.782 86.9908 103.292C91.0242 104.801 84.0355 95.5763 84.0355 95.5763Z" fill="black"/>
<path d="M19.996 48.2631C16.7442 48.3336 9.71957 48.957 13.3622 53.2252C16.5825 57.0024 21.9948 54.4777 25.04 52.5622C24.2971 50.7764 22.4918 49.2376 19.996 48.2631Z" fill="#FFB0B1"/>
<path opacity="0.1" d="M77.5676 22.1438C74.1181 23.6248 71.2256 24.8745 70.6597 25.134C69.1146 25.8534 66.1682 30.0763 64.2683 32.2316C62.7547 33.9665 57.8365 34.4122 55.9816 34.5222L56.2196 33.233C60.4371 32.0482 63.6665 28.2737 63.6665 28.2737L72.0026 19.0943L74.8727 20.7333C74.8727 20.7333 75.9506 21.2975 77.5676 22.1438Z" fill="black"/>
<path d="M77.5676 21.9745C74.1181 23.4555 71.2256 24.7052 70.6597 24.9676C69.1146 25.6841 66.1682 29.9071 64.2683 32.0623C62.7547 33.7972 57.8365 34.2429 55.9816 34.3529L56.2196 33.0637C60.4371 31.8789 63.6665 28.1045 63.6665 28.1045L72.0026 18.925L74.8727 20.5584C74.8727 20.5584 75.9506 21.1169 77.5676 21.9745Z" fill="#DCE7FF"/>
<path d="M70.9293 14.7867C70.9312 16.4801 70.1135 18.1339 68.5847 19.5287C66.7792 21.178 64.0922 22.3661 61.0112 22.8774C57.9303 23.3888 54.6596 23.1896 51.7925 22.3159C48.9254 21.4422 46.6519 19.952 45.3846 18.1156C44.1173 16.2792 43.9401 14.2183 44.8852 12.3068C45.8302 10.3954 47.8349 8.76004 50.5355 7.69752C53.2361 6.63499 56.4537 6.21568 59.6044 6.51569C62.7551 6.81569 65.6302 7.81512 67.708 9.33263C69.7859 10.8501 70.9287 12.7852 70.9293 14.7867Z" fill="#FFB0B1"/>
<path opacity="0.1" d="M94.177 42.9258C92.353 42.2211 90.8675 41.2189 89.8787 40.0259C89.1286 39.0949 88.63 38.0202 87.35 37.36C86.1957 36.7676 84.6551 36.6238 83.2178 36.3586C78.4928 35.4813 74.5313 32.7732 74.3831 29.6814C74.3113 28.2258 75.0344 26.773 74.7065 25.3314C74.5201 24.5156 74.0036 23.7434 73.2064 23.0888C72.8105 22.7757 72.3765 22.4823 71.9083 22.2115C71.2795 21.8391 70.6192 21.478 70.0443 21.0831C69.6822 20.8385 69.3657 20.5688 69.1011 20.2791C68.8875 20.042 68.7144 19.7915 68.5846 19.5315C67.6863 17.8051 68.5038 15.7571 67.5156 14.0109L67.4617 13.915C67.089 13.2944 66.3299 12.6738 65.2744 12.6258C64.2189 12.5779 63.3161 13.1279 62.31 13.3734C60.2036 13.8868 57.9309 13.0123 56.1747 12.1209C54.4185 11.2294 52.4378 10.2111 50.2055 10.4085C48.7278 10.5411 47.5601 11.173 46.1992 11.5002C45.8919 11.575 45.5748 11.6325 45.2515 11.6723C46.4032 9.86835 48.5192 8.3726 51.236 7.44205C53.9529 6.5115 57.1009 6.20426 60.1392 6.5731C63.1775 6.94194 65.9165 7.96383 67.8855 9.46322C69.8545 10.9626 70.9307 12.8459 70.9292 14.7895C70.9307 15.3764 70.8328 15.9618 70.6372 16.5357C70.6597 16.5752 70.6821 16.6118 70.7091 16.6513C71.2301 17.4976 71.8185 18.3665 72.335 19.1169L74.8727 20.5612C74.8727 20.5612 75.9506 21.1254 77.5676 21.9717C81.0844 23.8335 87.1613 27.1115 90.2964 29.1172C93.0541 30.8888 93.9165 37.755 94.177 42.9258Z" fill="black"/>
<path d="M46.0421 6.34636C46.6844 5.52546 47.0033 4.60582 47.7713 3.82724C48.8987 2.69885 50.8659 1.97668 52.8871 1.53943C58.1646 0.396937 69.3169 -1.26179 72.6496 1.53943C73.3053 2.10362 73.8488 2.72988 74.7561 3.11917C75.4477 3.41537 76.2831 3.54232 77.0422 3.76518C79.1667 4.39143 80.5231 5.75678 81.2462 7.15033C81.9693 8.54389 82.1849 10.039 82.7149 11.4749C83.3931 13.317 84.5834 15.0631 85.7691 16.798C87.166 18.8461 88.6482 20.9702 91.343 22.4174C95.0215 24.3921 95.8345 27.1877 99.248 29.3542C103.29 31.9269 103.16 36.1724 101.076 39.5435C100.802 39.9864 100.492 40.449 100.6 40.9201C100.708 41.3912 101.265 41.82 101.79 42.1952L104 43.7608C98.7719 44.5535 92.8566 42.8384 90.4223 39.8284C89.6722 38.8975 89.1737 37.8255 87.8891 37.1626C86.7393 36.5702 85.1942 36.4291 83.7614 36.164C79.0364 35.2838 75.0749 32.5729 74.9267 29.4811C74.8548 28.0283 75.578 26.5755 75.2501 25.1368C75.0677 24.3155 74.5493 23.5379 73.7455 22.88C72.5103 21.8673 70.6464 21.1875 69.6403 20.0591C67.938 18.1718 69.2315 15.7204 68.0054 13.695C67.6281 13.0744 66.8735 12.4538 65.818 12.4058C64.7625 12.3578 63.8597 12.9079 62.8492 13.1533C60.7472 13.6668 58.4745 12.7951 56.7183 11.9008C54.9621 11.0066 52.9814 9.99105 50.7447 10.1913C49.267 10.3211 48.1037 10.953 46.7427 11.283C45.7367 11.5257 43.6975 11.7429 42.8172 11.2097C40.9577 10.1349 45.2651 7.35062 46.0421 6.34636Z" fill="#591D4B"/>
<path opacity="0.1" d="M91.6709 38.8975C90.9164 37.9666 90.4223 36.8946 89.1377 36.2345C87.9879 35.6421 86.4429 35.4982 85.0056 35.2331C80.2851 34.3557 76.3236 31.6448 76.1709 28.553C76.099 27.1002 76.8221 25.6446 76.4988 24.2059C76.3106 23.3899 75.7926 22.6177 74.9941 21.9632C73.7545 20.9505 71.8905 20.2706 70.8889 19.1423C69.1866 17.2579 70.4802 14.8064 69.2495 12.7782C68.8768 12.1604 68.1177 11.5398 67.0667 11.489C66.0157 11.4382 65.1039 11.9939 64.0978 12.2394C61.9958 12.7528 59.7187 11.8783 57.967 10.9869C56.2153 10.0954 54.2256 9.07706 51.9933 9.27452C50.5156 9.40711 49.3478 10.039 47.9914 10.3662C46.9853 10.6088 44.9417 10.8289 44.0614 10.2957C42.2109 9.16733 46.5182 6.38867 47.2908 5.39005C47.933 4.56632 48.2519 3.64951 49.0245 2.87093C49.0649 2.82861 49.1098 2.7863 49.1547 2.74399C48.5769 3.04466 48.0781 3.40071 47.677 3.79903C46.909 4.57761 46.5901 5.4916 45.9478 6.31815C45.1708 7.31677 40.8635 10.1039 42.7184 11.2238C43.6167 11.7598 45.6379 11.5398 46.644 11.2972C47.9914 10.9671 49.1682 10.3352 50.6459 10.2054C52.8916 10.0051 54.8679 11.0235 56.6195 11.9149C58.3712 12.8064 60.6618 13.6809 62.7549 13.1675C63.761 12.922 64.6413 12.3691 65.7192 12.4199C66.7972 12.4707 67.5158 13.0885 67.9066 13.7091C69.1328 15.7345 67.8392 18.186 69.5415 20.0732C70.5476 21.1818 72.4115 21.8758 73.6467 22.8941C74.4505 23.552 74.9689 24.3296 75.1513 25.1509C75.4792 26.5896 74.7561 28.0424 74.8279 29.4952C74.9762 32.5983 78.9376 35.2979 83.6626 36.1781C85.0864 36.4432 86.6405 36.5843 87.7903 37.1767C89.0794 37.8396 89.5869 38.9116 90.3235 39.8425C92.7579 42.8525 98.6731 44.5676 103.901 43.7749L102.859 43.0358C98.3273 43.0782 93.7415 41.4589 91.6709 38.8975Z" fill="black"/>
<path opacity="0.1" d="M60.7067 26.0226C60.1183 26.5868 58.434 29.4755 57.0282 31.9974C55.7122 31.6758 54.5175 29.625 54.5175 29.625L61.5331 23.3568C62.2518 23.9774 61.7801 25.007 60.7067 26.0226Z" fill="black"/>
<path d="M60.9761 25.8533C60.3877 26.4175 58.7034 29.3062 57.2976 31.8282C55.9816 31.5094 54.7869 29.4557 54.7869 29.4557L61.8025 23.1904C62.5212 23.8081 62.0496 24.8406 60.9761 25.8533Z" fill="#DCE7FF"/>
<path d="M20.1847 54.6723L16.295 46.9683C16.249 46.8781 16.2318 46.783 16.2443 46.6887C16.2569 46.5943 16.2991 46.5024 16.3683 46.4182C16.4376 46.3341 16.5327 46.2594 16.648 46.1984C16.7634 46.1374 16.8968 46.0913 17.0406 46.0627C17.3301 46.006 17.6436 46.0233 17.9127 46.111C18.1819 46.1987 18.385 46.3497 18.4779 46.531L22.3675 54.2266L21.9812 55.8374L20.1847 54.6723Z" fill="#BE8B87"/>
<path opacity="0.1" d="M16.6635 46.2912C16.9535 46.2336 17.2682 46.2505 17.5384 46.3383C17.8086 46.4261 18.0125 46.5775 18.1052 46.7595L21.9948 54.4551L21.7029 55.6625L21.9859 55.8487L22.3721 54.2379L18.4601 46.5423C18.3672 46.361 18.1641 46.21 17.8949 46.1223C17.6257 46.0346 17.3123 46.0173 17.0228 46.074C16.7792 46.1236 16.569 46.2229 16.4254 46.3561C16.5018 46.3304 16.5814 46.3087 16.6635 46.2912Z" fill="white"/>
<path d="M20.1847 54.6723L22.3676 54.2379L22.0487 55.5581L21.9813 55.8487L21.3435 55.4312L20.1847 54.6723Z" fill="#EFC8C4"/>
<path d="M21.3435 55.4312C21.3815 55.401 21.4289 55.3761 21.4827 55.3578C21.5143 55.3453 21.5509 55.3386 21.5883 55.3386C21.6257 55.3386 21.6623 55.3453 21.6939 55.3578C21.7244 55.381 21.7501 55.4066 21.7702 55.434C21.7999 55.4651 21.8403 55.4917 21.8885 55.5117C21.9367 55.5317 21.9914 55.5447 22.0487 55.5497L21.9813 55.8317L21.3435 55.4312Z" fill="#727A9C"/>
<path d="M16.2726 49.7046C16.2726 49.7046 24.0742 49.6764 22.2372 51.7611C20.4002 53.8458 17.5302 54.0969 17.5302 54.0969L16.2726 49.7046Z" fill="#FFB0B1"/>
</svg>
